<svg xmlns:dc="http://purl.org/dc/elements/1.1/" xmlns:cc="http://creativecommons.org/ns#" xmlns:rdf="http://www.w3.org/1999/02/22-rdf-syntax-ns#" xmlns:svg="http://www.w3.org/2000/svg" xmlns="http://www.w3.org/2000/svg" viewBox="0 0 666.66669 666.66669" height="666.66669" width="666.66669" xml:space="preserve" id="svg2" version="1.1"><metadata id="metadata8"><rdf:RDF><cc:Work rdf:about=""><dc:format>image/svg+xml</dc:format><dc:type rdf:resource="http://purl.org/dc/dcmitype/StillImage"/></cc:Work></rdf:RDF></metadata><defs id="defs6"/><g transform="matrix(1.3333333,0,0,-1.3333333,0,666.66667)" id="g10"><g transform="scale(0.1)" id="g12"><path id="path28" style="stroke-width:30px;stroke:greenyellow;" d="m 4419.55,2472.31 c -178.8,-157.18 -155.59,-408.07 -445.99,-527.18 -128.41,-52.68 -110.58,5.22 -64.71,-82.71 168.08,-321.87 -63.63,-488.97 -53.31,-672.52 4.17,-74.28 28.73,-49.6 -45.44,-45.44 -187.24,10.53 -349.59,-221.94 -672.52,-53.31 -87.95,45.92 -30.05,63.65 -82.71,-64.71 -119.54,-291.42 -368.99,-266.049 -527.18,-445.991 -39.64,-45.09 -15.74,-45.078 -55.38,0 -157.18,178.801 -408.06,155.59 -527.18,445.991 -52.66,128.36 5.2,110.61 -82.71,64.71 -321.63,-167.939 -489.3,63.61 -672.52,53.31 -74.26,-4.17 -49.6,-28.73 -45.44,45.44 10.53,187.24 -221.94,349.59 -53.31,672.52 45.81,87.81 63.71,30.03 -64.71,82.71 -291.538,119.58 -265.823,368.79 -445.991,527.18 -45.09,39.64 -45.086,15.74 0,55.38 178.801,157.18 155.586,408.07 445.991,527.19 128.41,52.67 110.58,-5.23 64.71,82.7 -168.08,321.87 63.63,488.97 53.31,672.52 -4.17,74.28 -28.73,49.6 45.44,45.44 187.24,-10.53 349.59,221.94 672.52,53.31 87.94,-45.92 30.05,-63.65 82.71,64.71 119.54,291.42 368.99,266.05 527.18,445.99 39.64,45.09 15.74,45.08 55.38,0 157.18,-178.8 408.06,-155.59 527.18,-445.99 52.66,-128.37 -5.2,-110.61 82.71,-64.71 321.63,167.95 489.3,-63.61 672.52,-53.31 74.26,4.17 49.6,28.73 45.44,-45.44 -10.53,-187.24 221.94,-349.59 53.31,-672.52 -45.81,-87.82 -63.71,-30.03 64.71,-82.7 291.54,-119.59 265.82,-368.8 445.99,-527.19 45.09,-39.64 45.09,-15.74 0,-55.38 z M 4086.5,1952.19 c -30.53,44.44 -48.21,-15.68 52,76.86 57.62,-59.13 56.27,-51.57 -52,-76.86 z m 104.71,-2.5 c 23.09,-59.94 32.33,-33.08 -86.36,-42.18 -11.95,58.94 -42.77,27.46 56.65,54.45 26.98,7.32 21.02,10.29 29.71,-12.27 z m 18.38,-50.77 c 28.08,-80.93 30.49,-69.57 0.06,-64.61 -18.57,3.03 -50.02,9.61 -73.86,16.32 -49.51,13.91 -21.77,-2.2 -30,51.15 75.97,-0.61 96.7,-3.26 103.8,-2.86 z m 40.54,-116 c 2.33,-10.51 4.48,-12.74 -57.75,-45.44 -124.99,93.3 -103.86,78.97 -95.47,97.16 12.61,27.35 -4.79,21.51 35.79,8.19 110.44,-36.25 104.35,-0.94 117.43,-59.91 z m -174.77,-47.74 c -39.2,65.17 -18.17,43.06 9.29,79.26 14.09,-17.74 78.55,-69.87 96.94,-82.65 -87.79,-43.61 -84.18,-33.27 -106.23,3.39 z m -49.68,-43.68 c 0.3,9.95 -5.99,54.41 -12.94,78.05 67.26,14.25 1.39,19.93 76.64,-71.4 -20.96,-4.62 -42.33,-6.91 -63.7,-6.65 z m -67.46,90.73 c -74.3,230.58 -132.58,50.22 96.58,184.84 25.56,-8.39 58.33,-76.67 26.43,-133.7 -39.58,-70.76 -119.47,-47.77 -123.01,-51.14 z m 22.05,-86.11 c -5.36,1.08 1.08,-7.71 -9.44,39.65 -6.52,29.31 -9.81,34.14 -8.87,34.02 51,-11.94 43.58,25.78 52.37,-63.94 1.38,-14.03 8.52,-18.21 -34.06,-9.73 z M 3308.18,984.242 c -0.94,0.156 -75.42,10.297 -76.35,10.348 9.46,63.47 -35.05,42.54 72.06,27.5 -0.39,-5.56 2.95,-11.72 4.29,-37.848 z m -6.33,-73.621 c -90.34,74.449 -85.57,9.719 -71.4,76.641 23.59,-6.934 68.06,-13.242 78.05,-12.942 0.26,-21.371 -2.03,-42.742 -6.65,-63.699 z m -3.7,-15.031 c -7.31,-26.699 -17.64,-52.418 -29.94,-77.18 -101.68,146.301 -94.21,62.801 -53.34,129.59 22.51,-7.59 86.68,-39.961 83.28,-52.41 z m -43.12,-102.121 c -30.11,-53.629 -24.14,-51.321 -74.88,-31.149 -0.84,13.739 -8.57,61.078 -22.98,104.981 -13.31,40.558 -19.15,23.191 8.19,35.789 21.05,9.711 8.57,15.82 36.8,-17.41 71.62,-84.278 60.82,-78.039 52.87,-92.211 z m -94.68,-23.559 c -68.62,24.231 -61.12,-1.371 -62.13,124.301 53.31,-8.219 37.24,19.5 51.15,-30 6.65,-23.652 13.25,-55.063 16.32,-73.859 4.8,-29.454 4.75,-24.012 -5.34,-20.442 z m -127.42,175.289 c 134.57,229.191 -42.86,169.931 184.84,96.581 -4.58,-4.81 20.46,-82.96 -51.14,-123.01 -56.33,-31.5 -125.22,0.589 -133.7,26.429 z m 17.38,-136.41 c -23.73,9.141 -19.19,4.211 -12.27,29.711 27.04,99.602 -4.61,68.641 54.45,56.652 -8.95,-116.742 17.41,-109.312 -42.18,-86.363 z m -27.69,12.223 c -25.84,13.09 -30.89,20.25 -51.67,40.488 92.69,100.371 32.16,82.719 76.86,52 -13.33,-57.059 -22.96,-82.648 -25.19,-92.488 z M 1952.19,913.5 c 44.44,30.531 -15.69,48.211 76.86,-52 -59.13,-57.621 -51.57,-56.281 -76.86,52 z m -2.5,-104.711 c -59.94,-23.078 -33.08,-32.328 -42.18,86.363 58.93,11.957 27.46,42.758 54.45,-56.652 7.32,-26.98 10.27,-21.031 -12.27,-29.711 z M 1833.37,918.77 c -70.76,39.582 -47.77,119.47 -51.14,123.01 230.55,74.27 50.27,132.61 184.84,-96.581 -8.37,-25.5 -76.73,-58.289 -133.7,-26.429 z m -2.35,-152.129 c 2.86,27.82 12.15,71.058 19.61,97.57 13.91,49.508 -2.18,21.769 51.15,30 -1.04,-129.902 10.62,-96.219 -70.76,-127.57 z m -9.45,8.66 c -1.52,-10.86 3.47,-16.09 -38.65,-25.43 -11.8,-2.621 -11.98,0.75 -23.25,18.84 -27.74,44.508 -25.23,35.238 -5.83,61.34 73.97,99.531 64.74,80.449 80.8,73.039 40.91,-18.86 8.17,23.969 -13.07,-127.789 z m -86.39,149.34 c 65.19,39.199 43.03,18.187 79.26,-9.289 -17.77,-14.114 -69.96,-78.672 -82.65,-96.942 -43.61,87.789 -33.27,84.18 3.39,106.231 z m -39.07,97.449 c 107.11,15.04 62.6,35.97 72.06,-27.5 -0.93,-0.051 -75.42,-10.192 -76.35,-10.348 1.45,28.328 4.7,32.008 4.29,37.848 z m -4.61,-47.77 c 9.98,-0.3 54.45,6 78.05,12.942 14.25,-67.282 19.95,-1.352 -71.4,-76.641 -4.62,20.957 -6.92,42.328 -6.65,63.699 z m -669.41,721.79 c -39.399,2.8 -41.52,-25.35 -34.047,30.14 8.836,65.58 -1.195,30.75 50.047,43.56 -7.44,-25.3 -12.09,-45.84 -16,-73.7 z m -47.77,-4.61 c -21.367,-0.26 -42.742,2.03 -63.703,6.65 74.449,90.35 9.727,85.57 76.645,71.4 -7.106,-24.17 -13.223,-68.56 -12.942,-78.05 z m -72.234,12.14 c -6.824,-8.07 -74.191,23.43 -83.68,28.15 147.274,102.35 62.449,94.43 129.59,53.34 -9.402,-27.91 -25.41,-57.23 -45.91,-81.49 z m -94.469,33.84 c -64.207,33.74 -59.773,36.31 -57.75,45.44 11.613,52.38 7.43,30.15 82.106,49.52 96.191,24.94 46.543,36.06 79.925,-13.2 -14.246,-9.53 -10.683,-11.9 -104.281,-81.76 z m -37.711,102.17 c 24.227,68.62 -1.367,61.12 124.305,62.13 -8.227,-53.32 19.5,-37.24 -30.004,-51.15 -23.133,-6.51 -54.441,-13.16 -73.859,-16.32 -29.465,-4.8 -24.012,-4.76 -20.442,5.34 z m 38.883,110.04 c 11.246,29.2 -6.976,16.21 101.117,-3.18 -32.726,-55.93 23.684,-33.83 -100.937,-37.08 -17.77,-0.46 -18.852,-8.21 -0.18,40.26 z m 136.41,17.38 c 61.051,-35.86 115.431,-52.65 161.941,-57.67 -56.95,-73.1 -55.77,-122.45 -70.6,-125.93 -70.657,-16.66 -142.149,38.89 -129.583,120.45 3.379,21.93 18.832,56.78 38.242,63.15 z m -83.695,61.98 c 23.289,-21.51 48.723,-40.6 75.816,-57.21 -42.601,-12.39 11.489,-30.71 -72.238,-7.24 -47.211,13.23 -63.031,3.44 -3.578,64.45 z M 913.5,3047.81 c 30.531,-44.44 48.215,15.69 -51.996,-76.86 -57.625,59.13 -56.277,51.57 51.996,76.86 z m -104.711,2.5 c -23.086,59.94 -32.324,33.08 86.359,42.18 11.954,-58.94 42.774,-27.46 -56.652,-54.45 -26.976,-7.32 -21.016,-10.29 -29.707,12.27 z m -18.383,50.77 c -28.078,80.93 -30.484,69.57 -0.058,64.61 18.566,-3.03 50.027,-9.61 73.859,-16.32 49.516,-13.91 21.773,2.2 30.004,-51.15 -75.973,0.61 -96.695,3.26 -103.805,2.86 z m -40.539,116 c -2.328,10.51 -4.476,12.74 57.75,45.44 124.992,-93.3 103.863,-78.97 95.477,-97.16 -12.617,-27.35 4.785,-21.51 -35.797,-8.19 -110.442,36.25 -104.352,0.94 -117.43,59.91 z m 174.77,47.74 c 39.203,-65.17 18.168,-43.06 -9.285,-79.26 -14.09,17.74 -78.555,69.87 -96.946,82.65 87.797,43.61 84.184,33.27 106.231,-3.39 z m 49.683,43.68 c -0.297,-9.95 5.989,-54.41 12.942,-78.05 -67.262,-14.25 -1.387,-19.93 -76.645,71.4 20.961,4.62 42.336,6.92 63.703,6.65 z m 67.46,-90.73 c 74.3,-230.58 132.58,-50.22 -96.581,-184.84 -25.554,8.39 -58.324,76.67 -26.426,133.7 39.579,70.76 119.467,47.77 123.007,51.14 z m -22.05,86.11 c 5.36,-1.08 -1.08,7.71 9.44,-39.65 6.52,-29.31 9.81,-34.14 8.87,-34.02 -50.997,11.93 -43.587,-25.78 -52.372,63.94 -1.383,14.03 -8.516,18.21 34.062,9.73 z m 672.09,711.88 c 0.94,-0.16 75.42,-10.3 76.35,-10.35 -9.46,-63.47 35.04,-42.54 -72.06,-27.5 0.39,5.56 -2.95,11.72 -4.29,37.85 z m 6.33,73.62 c 90.34,-74.45 85.57,-9.72 71.4,-76.64 -23.59,6.94 -68.06,13.24 -78.05,12.94 -0.27,21.37 2.03,42.74 6.65,63.7 z m 3.7,15.03 c 7.31,26.7 17.64,52.42 29.94,77.18 101.68,-146.3 94.21,-62.8 53.34,-129.59 -22.51,7.59 -86.68,39.96 -83.28,52.41 z m 43.12,102.13 c 30.11,53.62 24.14,51.31 74.88,31.14 0.84,-13.74 8.57,-61.08 22.98,-104.97 13.31,-40.57 19.15,-23.19 -8.19,-35.8 -21.05,-9.71 -8.58,-15.82 -36.8,17.41 -71.62,84.28 -60.82,78.04 -52.87,92.22 z m 94.68,23.55 c 68.62,-24.23 61.12,1.37 62.13,-124.3 -53.31,8.23 -37.24,-19.5 -51.15,30 -6.65,23.65 -13.25,55.06 -16.32,73.86 -4.8,29.45 -4.75,24.01 5.34,20.44 z m 127.42,-175.29 c -134.57,-229.19 42.86,-169.94 -184.84,-96.58 4.58,4.81 -20.46,82.96 51.14,123.01 56.33,31.5 125.22,-0.59 133.7,-26.43 z m -17.38,136.41 c 23.73,-9.14 19.19,-4.21 12.27,-29.71 -27.04,-99.59 4.61,-68.64 -54.45,-56.65 8.95,116.74 -17.41,109.31 42.18,86.36 z m 27.69,-12.21 c 25.84,-13.1 30.89,-20.26 51.67,-40.5 -92.69,-100.37 -32.16,-82.71 -76.86,-52 13.33,57.06 22.96,82.65 25.19,92.5 z m 1070.43,-92.5 c -44.44,-30.54 15.68,-48.21 -76.86,52 59.13,57.62 51.57,56.28 76.86,-52 z m 2.5,104.71 c 59.94,23.08 33.08,32.33 42.18,-86.36 -58.93,-11.96 -27.46,-42.76 -54.45,56.65 -7.32,26.98 -10.27,21.03 12.27,29.71 z m 116.32,-109.98 c 70.76,-39.58 47.77,-119.47 51.14,-123.01 -230.55,-74.27 -50.27,-132.61 -184.84,96.58 8.37,25.5 76.73,58.29 133.7,26.43 z m 2.35,152.13 c -2.86,-27.82 -12.15,-71.06 -19.61,-97.57 -13.91,-49.51 2.18,-21.77 -51.15,-30 1.04,129.91 -10.62,96.22 70.76,127.57 z m 9.45,-8.66 c 1.52,10.86 -3.47,16.09 38.65,25.43 11.8,2.62 11.98,-0.75 23.25,-18.84 27.73,-44.51 25.23,-35.24 5.83,-61.34 -73.97,-99.53 -64.74,-80.45 -80.8,-73.04 -40.91,18.86 -8.17,-23.97 13.07,127.79 z m 86.39,-149.34 c -65.19,-39.2 -43.03,-18.19 -79.26,9.29 17.76,14.11 69.96,78.67 82.65,96.94 43.61,-87.79 33.27,-84.18 -3.39,-106.23 z m 39.07,-97.45 c -107.11,-15.04 -62.6,-35.97 -72.06,27.5 0.93,0.05 75.42,10.2 76.35,10.35 -1.45,-28.33 -4.7,-32.01 -4.29,-37.85 z m 4.61,47.77 c -9.98,0.3 -54.45,-6 -78.05,-12.94 -14.25,67.28 -19.96,1.35 71.4,76.64 4.62,-20.96 6.91,-42.33 6.65,-63.7 z m 669.41,-721.79 c 39.4,-2.8 41.52,25.35 34.05,-30.14 -8.84,-65.58 1.19,-30.75 -50.05,-43.56 7.44,25.3 12.09,45.84 16,73.7 z m 47.77,4.61 c 21.37,0.27 42.74,-2.03 63.7,-6.65 -74.45,-90.35 -9.72,-85.57 -76.64,-71.4 7.1,24.17 13.22,68.56 12.94,78.05 z m 72.24,-12.14 c 6.82,8.07 74.18,-23.43 83.67,-28.15 -147.27,-102.35 -62.45,-94.43 -129.59,-53.34 9.41,27.91 25.41,57.23 45.92,81.49 z m 94.46,-33.84 c 64.21,-33.75 59.78,-36.31 57.75,-45.44 -11.61,-52.38 -7.43,-30.15 -82.1,-49.52 -96.19,-24.94 -46.55,-36.06 -79.93,13.2 14.25,9.53 10.69,11.9 104.28,81.76 z m 37.71,-102.17 c -24.22,-68.62 1.37,-61.12 -124.3,-62.13 8.22,53.32 -19.5,37.24 30,51.15 23.14,6.51 54.45,13.15 73.86,16.32 29.47,4.8 24.01,4.76 20.44,-5.34 z m -38.88,-110.04 c -11.25,-29.2 6.98,-16.21 -101.12,3.18 32.73,55.93 -23.68,33.83 100.94,37.08 17.77,0.46 18.85,8.21 0.18,-40.26 z m -136.41,-17.38 c -61.05,35.86 -115.43,52.65 -161.94,57.67 56.95,73.1 55.77,122.45 70.6,125.93 70.66,16.66 142.15,-38.89 129.58,-120.45 -3.38,-21.93 -18.83,-56.78 -38.24,-63.15 z m 83.7,-61.98 c -23.29,21.51 -48.72,40.6 -75.82,57.21 42.6,12.39 -11.49,30.71 72.24,7.24 47.21,-13.23 63.03,-3.44 3.58,-64.45 z m 351.24,-465.9 c -159.79,80.21 -196.03,279.54 -299.97,410.74 -80.06,101.04 -42.27,-12.37 17.26,142.76 75.39,196.49 72.22,168.7 27.28,197.02 -76.81,48.43 -165.35,83.32 -254.24,66.22 28.88,276.42 -171.67,353.22 -79.48,578.8 -224.84,-91.89 -303.4,108.25 -578.8,79.48 17.1,88.86 -17.76,177.37 -66.22,254.24 -28.21,44.76 -1.99,47.55 -197.02,-27.28 -152.57,-58.55 -43.32,-96.05 -142.76,-17.26 -129.47,102.57 -330.83,140.8 -410.74,299.98 -6.86,13.67 -3.24,13.67 -10.1,0 -80.21,-159.8 -279.54,-196.04 -410.74,-299.98 -101.04,-80.06 12.37,-42.27 -142.76,17.26 -36.16,13.87 -156.68,57.47 -160.01,58.56 -25.09,8.15 -128.82,-152.51 -103.23,-285.52 -276.43,28.88 -353.22,-171.67 -578.8,-79.48 91.76,-224.54 -108.203,-303.89 -79.48,-578.8 -131.703,25.34 -293.801,-77.73 -285.516,-103.23 1.137,-3.5 44.848,-124.28 58.559,-160.01 58.55,-152.57 96.043,-43.32 17.257,-142.76 -102.57,-129.47 -140.792,-330.84 -299.976,-410.74 -13.676,-6.87 -13.672,-3.23 0,-10.1 159.797,-80.21 196.035,-279.54 299.976,-410.74 80.055,-101.04 42.274,12.37 -17.257,-142.76 -75.395,-196.49 -72.227,-168.7 -27.285,-197.02 76.812,-48.43 165.355,-83.32 254.242,-66.22 -28.879,-276.42 171.67,-353.22 79.48,-578.8 224.84,91.89 303.4,-108.25 578.8,-79.48 -17.1,-88.86 17.76,-177.371 66.22,-254.239 28.21,-44.761 1.99,-47.55 197.02,27.278 152.57,58.551 43.32,96.051 142.76,17.261 129.47,-102.57 330.83,-140.8 410.74,-299.968 6.86,-13.68 3.24,-13.68 10.1,0 80.21,159.789 279.54,196.027 410.74,299.968 101.04,80.051 -12.37,42.27 142.76,-17.261 36.16,-13.867 156.68,-57.469 160,-58.559 25.1,-8.148 128.83,152.512 103.24,285.52 276.43,-28.879 353.22,171.67 578.8,79.48 -91.76,224.54 108.2,303.89 79.48,578.8 131.7,-25.34 293.8,77.73 285.52,103.23 -1.14,3.5 -44.85,124.28 -58.56,160.01 -58.55,152.57 -96.05,43.32 -17.26,142.76 102.57,129.47 140.79,330.84 299.97,410.74 13.68,6.87 13.68,3.23 0,10.1"/></g></g></svg>