<svg xmlns:dc="http://purl.org/dc/elements/1.1/" xmlns:cc="http://creativecommons.org/ns#" xmlns:rdf="http://www.w3.org/1999/02/22-rdf-syntax-ns#" xmlns:svg="http://www.w3.org/2000/svg" xmlns="http://www.w3.org/2000/svg" viewBox="0 0 666.66669 666.66669" height="666.66669" width="666.66669" xml:space="preserve" id="svg2" version="1.1"><metadata id="metadata8"><rdf:RDF><cc:Work rdf:about=""><dc:format>image/svg+xml</dc:format><dc:type rdf:resource="http://purl.org/dc/dcmitype/StillImage"/></cc:Work></rdf:RDF></metadata><defs id="defs6"/><g transform="matrix(1.3333333,0,0,-1.3333333,0,666.66667)" id="g10"><g transform="scale(0.1)" id="g12"><path id="path16" style="fill:hotpink;stroke-width:20px;stroke:hotpink;" d="m 2500,3769.54 c -700.02,0 -1269.53,-569.52 -1269.53,-1269.54 0,-700.02 569.51,-1269.53 1269.53,-1269.53 700.02,0 1269.53,569.51 1269.53,1269.53 0,700.02 -569.51,1269.54 -1269.53,1269.54 z m 0,-2557.61 c -710.24,0 -1288.07,577.83 -1288.07,1288.07 0,710.24 577.83,1288.07 1288.07,1288.07 710.24,0 1288.07,-577.83 1288.07,-1288.07 0,-710.24 -577.83,-1288.07 -1288.07,-1288.07"/><path id="path20" style="fill:hotpink;stroke-width:20px;stroke:hotpink;" d="m 2580.96,3991.58 c -47.78,15.11 -108.37,16.94 -161.92,0 -229.66,-72.62 -273,-289.55 -249.42,-243.09 156.52,308.4 502.92,311 660.76,0 23.63,-46.57 -19.95,170.53 -249.42,243.09"/><path id="path22" style="fill:hotpink;stroke-width:20px;stroke:hotpink;" d="m 3991.58,2580.96 c -72.62,229.66 -289.54,272.99 -243.09,249.42 308.41,-156.52 311,-502.92 0,-660.76 -46.57,-23.63 170.53,19.95 243.09,249.42 15.11,47.77 16.92,108.41 0,161.92"/><path id="path24" style="fill:hotpink;stroke-width:20px;stroke:hotpink;" d="m 2830.38,1251.51 c -156.52,-308.408 -502.92,-310.998 -660.76,0 -23.64,46.57 19.95,-170.53 249.42,-243.09 47.78,-15.111 108.37,-16.932 161.92,0 229.66,72.62 272.99,289.55 249.42,243.09"/><path id="path26" style="fill:hotpink;stroke-width:20px;stroke:hotpink;" d="M 1249.29,2836.82 C 1072.88,2776.98 983.57,2577.75 998.961,2500 c -15.793,-79.78 75.279,-277.44 250.329,-336.82 3.77,-1.29 5.54,4.75 2.22,6.44 -294.213,149.32 -323.506,496.57 0,660.76 3.32,1.69 1.55,7.73 -2.22,6.44"/><path id="path30" style="fill:hotpink;stroke-width:20px;stroke:hotpink;" d="m 3252.47,3649.25 c -90.94,-11.38 -106.59,-54.14 -92.21,-44.19 73.24,50.68 301.25,64.97 402.69,-42.11 108.21,-102.52 91.7,-331.03 42.11,-402.69 -9.95,-14.38 32.81,1.24 44.19,92.21 38.24,305.47 -106.14,433.16 -396.78,396.78"/><path id="path32" style="fill:hotpink;stroke-width:20px;stroke:hotpink;" d="m 3609.1,1843.83 c -2.49,2.35 -5.81,-1.53 -4.04,-4.09 23.32,-33.7 32.18,-71.53 34.38,-111.99 7.81,-143.46 -0.48,-244.85 -116.85,-326.29 -79.49,-55.63 -284.37,-60.47 -362.33,-6.52 -12.88,8.91 -12.07,-49.89 195.64,-48.45 380.28,2.66 316.76,437.25 253.2,497.34"/><path id="path34" style="fill:hotpink;stroke-width:20px;stroke:hotpink;" d="m 1839.74,1394.94 c -73.24,-50.68 -301.25,-64.97 -402.69,42.11 -108.21,102.52 -91.7,331.03 -42.11,402.69 9.95,14.38 -32.81,-1.24 -44.19,-92.21 -38.26,-305.59 106.29,-433.14 396.78,-396.78 90.94,11.38 106.59,54.14 92.21,44.19"/><path id="path36" style="fill:hotpink;stroke-width:20px;stroke:hotpink;" d="m 1747.53,3649.25 c -292.34,36.59 -434.15,-98.26 -396.78,-396.78 11.38,-90.95 54.14,-106.59 44.19,-92.21 -41.42,59.85 -39.9,167.01 -33.42,239.49 25.63,286.38 385.93,269.18 478.22,205.31 14.38,-9.94 -1.25,32.81 -92.21,44.19"/><path id="path38" style="fill:hotpink;stroke-width:20px;stroke:hotpink;" d="m 2790.29,3754.31 c 30.28,34.37 -27.61,109.21 -85.54,60.12 1.48,66.96 -72.56,110.69 -109.13,62.26 -33.6,-44.5 -3.58,-36.75 -32.36,12.65 -16.05,27.56 -45.49,48.47 -63.26,53.86 -17.33,-5.26 -46.98,-25.91 -63.26,-53.86 -28.77,-49.38 1.26,-57.18 -32.36,-12.65 -36.71,48.62 -110.61,4.43 -109.13,-62.26 -57.91,49.08 -115.77,-25.81 -85.54,-60.12 8.5,-9.66 -8.54,20.29 6.83,44.36 20.3,31.79 62.08,25.01 82.98,-8.65 11.18,-32.85 27.63,-19.73 11.71,5.89 -16.92,54.25 37.3,101.57 68.96,84.75 18.01,-9.56 35.75,-52.96 42.12,-72.4 7.74,-48.19 22.97,-30.62 21.27,-22.95 -17.41,78.2 9.7,120.03 56.42,139.61 46.63,-19.54 73.85,-61.3 56.42,-139.61 -1.85,-8.32 13.56,-25.01 21.27,22.95 47.8,145.74 129.34,46.2 111.08,-12.35 -16.34,-26.29 0.82,-37.89 11.71,-5.89 20.94,33.73 62.72,40.37 82.98,8.65 15.41,-24.13 -1.67,-54.02 6.83,-44.36"/><path id="path40" style="fill:hotpink;stroke-width:20px;stroke:hotpink;" d="m 3756.21,2213.06 c -1.88,0.66 -3.35,-2.07 -1.9,-3.35 34.38,-30.29 109.18,27.65 60.12,85.54 63.82,-1.41 132.56,77.62 32.98,126.94 32.28,4.9 59.1,21.6 78.25,46.94 21.18,28.02 22.73,31.67 0,61.74 -19.15,25.33 -45.96,42.04 -78.25,46.94 96.14,47.62 33.61,128.41 -32.98,126.94 49.13,57.96 -25.87,115.71 -60.12,85.54 -13.72,-12.1 57.26,20.96 64.56,-37.19 5.46,-43.56 -44.46,-58.8 -43.99,-59.73 -8.38,-5.14 -5.23,-20.92 21.03,-4.6 29.69,9.26 66.08,-3.97 81.32,-31.49 30.82,-55.6 -48.4,-67.74 -96.55,-87.25 -4.9,-1.99 -17.01,-21.61 30.55,-6.64 42.13,6.21 82.67,-11.54 105.79,-47.21 20.67,-31.88 -37.06,-89.7 -105.79,-79.57 -50.35,15.85 -33.32,-5.52 -30.55,-6.64 22.81,-9.24 32.44,-4.71 71.62,-26.72 72.19,-40.52 1.35,-110.03 -56.39,-92.02 -25.79,16.02 -29.52,0.61 -21.03,-4.6 -0.01,-0.02 -0.02,-0.03 -0.03,-0.04 0.09,-0.03 0.17,-0.06 0.25,-0.09 84.42,-51.43 29.43,-110.53 -18.89,-93.44"/><path id="path42" style="fill:hotpink;stroke-width:20px;stroke:hotpink;" d="m 2295.25,1185.57 c -1.41,-63.81 77.62,-132.55 126.94,-32.98 4.9,-32.28 21.6,-59.1 46.94,-78.25 28.07,-21.22 31.73,-22.68 61.74,0 25.34,19.15 42.04,45.96 46.94,78.25 47.62,-96.14 128.41,-33.59 126.94,32.98 57.91,-49.08 115.77,25.81 85.54,60.12 -11.92,13.54 20.19,-57.36 -37.19,-64.56 -43.6,-5.47 -58.8,44.49 -59.73,43.99 -5.26,8.57 -20.81,5.06 -4.6,-21.03 9.26,-29.69 -3.97,-66.08 -31.49,-81.33 -55.6,-30.8 -67.75,48.41 -87.25,96.56 -1.99,4.9 -21.61,17.02 -6.64,-30.55 6.21,-42.14 -11.54,-82.67 -47.21,-105.79 -31.88,-20.67 -89.7,37.06 -79.57,105.79 15.85,50.36 -5.52,33.32 -6.64,30.55 -9.24,-22.81 -4.71,-32.44 -26.72,-71.62 -40.56,-72.24 -110,-1.28 -92.02,56.39 16.03,25.8 0.61,29.52 -4.6,21.03 -0.02,0.01 -0.03,0.02 -0.04,0.02 -0.03,-0.08 -0.06,-0.16 -0.09,-0.24 -51.43,-84.4 -110.54,-29.45 -93.44,18.89 0.66,1.88 -2.07,3.35 -3.35,1.9 -30.28,-34.37 27.61,-109.21 85.54,-60.12"/><path id="path44" style="fill:hotpink;stroke-width:20px;stroke:hotpink;" d="m 1243.79,2786.94 c 1.88,-0.66 3.35,2.07 1.9,3.35 -34.38,30.29 -109.18,-27.65 -60.12,-85.54 -63.82,1.41 -132.56,-77.62 -32.98,-126.94 -32.28,-4.9 -59.1,-21.6 -78.25,-46.94 -21.18,-28.02 -22.73,-31.67 0,-61.74 19.15,-25.33 45.96,-42.04 78.25,-46.94 -96.14,-47.62 -33.61,-128.41 32.98,-126.94 -49.13,-57.96 25.87,-115.71 60.12,-85.54 13.57,11.96 -57.32,-20.53 -64.56,37.19 -5.46,43.56 44.46,58.8 43.99,59.73 8.38,5.14 5.23,20.92 -21.03,4.6 -29.69,-9.26 -66.08,3.97 -81.32,31.49 -30.82,55.6 48.4,67.74 96.55,87.25 4.9,1.99 17.01,21.61 -30.55,6.64 -42.13,-6.21 -82.67,11.54 -105.79,47.21 -20.67,31.88 37.06,89.7 105.79,79.57 50.35,-15.85 33.32,5.52 30.55,6.64 -22.81,9.24 -32.44,4.71 -71.62,26.72 -72.19,40.52 -1.35,110.03 56.39,92.02 25.79,-16.02 29.52,-0.61 21.03,4.6 0.01,0.02 0.02,0.03 0.02,0.04 -0.08,0.03 -0.16,0.06 -0.24,0.09 -84.42,51.43 -29.43,110.53 18.89,93.44"/><path id="path46" style="fill:hotpink;stroke-width:20px;stroke:hotpink;" d="m 3339.36,3547.44 c -4.13,78.24 -112.31,70.51 -115.38,8.44 -0.19,-3.83 5.94,-5.57 7.48,-1.87 15.92,38.4 43.82,46.11 67.66,34.5 46.79,-22.78 17.65,-76.24 15.09,-93.97 -0.56,-3.86 10.06,-25.07 22.26,25.56 13.49,25.65 42.35,47 54.06,20.49 18.51,-41.9 -18.84,-83.11 -26.03,-105.1 -0.74,-2.26 3.33,-31.49 30,25.19 26.8,34.47 64.42,45.5 107.35,41.17 4.34,-43.02 -6.76,-80.6 -41.17,-107.35 -55.99,-26.35 -27.77,-30.84 -25.19,-30 24.24,7.93 63.22,44.54 105.1,26.03 26.51,-11.71 5.16,-40.57 -20.49,-54.06 -48.7,-11.73 -30.85,-23.03 -25.56,-22.26 18.07,2.61 71.22,31.65 93.97,-15.09 11.7,-24.03 3.97,-51.71 -34.5,-67.66 -3.7,-1.54 -1.97,-7.67 1.87,-7.48 62.29,3.08 69.67,111.26 -8.44,115.38 46.35,43.34 4.69,80.3 -53.8,66.88 22.11,28.87 36.02,76.18 21.72,109.12 -32.93,14.3 -80.24,0.4 -109.12,-21.72 13.37,58.28 -23.46,100.29 -66.88,53.8"/><path id="path48" style="fill:hotpink;stroke-width:20px;stroke:hotpink;" d="m 3339.36,1452.56 c 43.38,-46.45 80.27,-4.56 66.88,53.8 28.87,-22.12 76.18,-36.02 109.12,-21.72 14.3,32.93 0.4,80.24 -21.72,109.12 58.22,-13.35 100.32,23.39 53.8,66.88 78.12,4.12 70.51,112.31 8.44,115.38 -3.84,0.19 -5.57,-5.94 -1.87,-7.48 38.4,-15.92 46.11,-43.82 34.5,-67.66 -22.78,-46.79 -76.19,-17.65 -93.97,-15.09 -3.86,0.56 -25.06,-10.06 25.56,-22.26 25.65,-13.49 47,-42.35 20.49,-54.06 -41.9,-18.52 -83.11,18.84 -105.1,26.03 -2.21,0.72 -31.49,-3.33 25.19,-30 34.41,-26.75 45.51,-64.34 41.17,-107.35 -42.92,-4.33 -80.55,6.69 -107.35,41.17 -26.35,55.99 -30.84,27.77 -30,25.19 7.93,-24.25 44.54,-63.22 26.03,-105.1 -11.71,-26.51 -40.57,-5.16 -54.06,20.49 -11.73,48.71 -23.03,30.85 -22.26,25.56 2.61,-18.07 31.65,-71.22 -15.09,-93.97 -24.02,-11.7 -51.71,-3.97 -67.66,34.5 -1.54,3.7 -7.67,1.97 -7.48,-1.87 3.08,-62.29 111.26,-69.67 115.38,8.44"/><path id="path50" style="fill:hotpink;stroke-width:20px;stroke:hotpink;" d="m 1452.56,1660.64 c -46.35,-43.34 -4.69,-80.3 53.8,-66.88 -22.11,-28.87 -36.02,-76.18 -21.72,-109.12 32.93,-14.3 80.24,-0.4 109.12,21.72 -13.37,-58.28 23.46,-100.29 66.88,-53.8 4.13,-78.24 112.31,-70.5 115.38,-8.44 0.19,3.84 -5.94,5.57 -7.48,1.87 -15.92,-38.4 -43.82,-46.11 -67.66,-34.5 -46.79,22.78 -17.65,76.24 -15.09,93.97 0.56,3.86 -10.06,25.07 -22.26,-25.56 -13.49,-25.65 -42.35,-47 -54.06,-20.49 -18.52,41.9 18.84,83.11 26.03,105.1 0.74,2.26 -3.33,31.49 -30,-25.19 -26.8,-34.47 -64.42,-45.5 -107.35,-41.17 -4.34,43.01 6.76,80.6 41.17,107.35 55.99,26.35 27.77,30.84 25.19,30 -24.24,-7.93 -63.22,-44.54 -105.1,-26.03 -26.51,11.71 -5.16,40.57 20.49,54.06 48.7,11.73 30.85,23.03 25.56,22.26 -18.07,-2.61 -71.22,-31.65 -93.97,15.09 -11.7,24.03 -3.97,51.71 34.5,67.66 3.7,1.54 1.96,7.67 -1.87,7.48 -62.29,-3.08 -69.67,-111.26 8.44,-115.38"/><path id="path52" style="fill:hotpink;stroke-width:20px;stroke:hotpink;" d="m 1444.12,3223.98 c 3.83,-0.19 5.57,5.94 1.87,7.48 -38.4,15.92 -46.11,43.82 -34.5,67.66 22.78,46.79 76.19,17.65 93.97,15.09 3.86,-0.56 25.06,10.06 -25.56,22.26 -25.65,13.49 -47,42.35 -20.49,54.06 41.9,18.52 83.11,-18.84 105.1,-26.03 2.21,-0.72 31.49,3.33 -25.19,30 -34.41,26.75 -45.51,64.34 -41.17,107.35 42.92,4.33 80.55,-6.69 107.35,-41.17 26.35,-55.99 30.84,-27.77 30,-25.19 -7.93,24.25 -44.54,63.22 -26.03,105.1 11.71,26.51 40.57,5.16 54.06,-20.49 11.73,-48.71 23.03,-30.85 22.26,-25.56 -2.61,18.07 -31.65,71.22 15.09,93.97 24.02,11.7 51.71,3.97 67.66,-34.5 1.54,-3.7 7.67,-1.96 7.48,1.87 -3.08,62.29 -111.26,69.67 -115.38,-8.44 -43.38,46.45 -80.27,4.56 -66.88,-53.8 -28.87,22.12 -76.18,36.02 -109.12,21.72 -14.3,-32.93 -0.4,-80.24 21.72,-109.12 -58.22,13.35 -100.32,-23.39 -53.8,-66.88 -78.12,-4.12 -70.51,-112.31 -8.44,-115.38"/><path id="path54" style="fill:hotpink;stroke-width:20px;stroke:hotpink;" d="m 2759.72,3793.01 c -2.32,10.19 -15.22,13.48 -21.9,6.78 -21.41,-18.63 28.78,-37.47 21.9,-6.78"/><path id="path56" style="fill:hotpink;stroke-width:20px;stroke:hotpink;" d="m 1198,2752.37 c -4.88,-12.2 6.91,-22.32 16.44,-17.82 23.74,6.45 -4.37,41.95 -16.44,17.82"/><path id="path58" style="fill:hotpink;stroke-width:20px;stroke:hotpink;" d="m 2240.28,1206.99 c 2.32,-10.19 15.22,-13.48 21.9,-6.78 21.41,18.63 -28.78,37.47 -21.9,6.78"/><path id="path60" style="fill:hotpink;stroke-width:20px;stroke:hotpink;" d="m 3802,2247.63 c 4.88,12.2 -6.91,22.32 -16.44,17.82 -23.74,-6.45 4.37,-41.95 16.44,-17.82"/><path id="path62" style="fill:hotpink;stroke-width:20px;stroke:hotpink;" d="m 3785.56,2734.55 c 8.72,-4.12 21.61,4.89 16.44,17.82 -12.08,24.15 -40.11,-11.39 -16.44,-17.82"/><path id="path64" style="fill:hotpink;stroke-width:20px;stroke:hotpink;" d="m 2265.05,3795.66 c -2.38,6.44 -11.61,10.23 -18.95,5.62 -10.7,-8.78 -5.65,-21.21 2.51,-23.44 10.37,-4.78 22.15,7.84 16.44,17.82"/><path id="path66" style="fill:hotpink;stroke-width:20px;stroke:hotpink;" d="m 1214.44,2265.45 c -8.72,4.12 -21.61,-4.89 -16.44,-17.82 12.08,-24.15 40.11,11.39 16.44,17.82"/><path id="path68" style="fill:hotpink;stroke-width:20px;stroke:hotpink;" d="m 2758.71,1215.42 c -7.22,19.5 -37.34,-0.89 -20.89,-15.21 10.18,-10.21 27.86,3.03 20.89,15.21"/><path id="path70" style="fill:hotpink;stroke-width:20px;stroke:hotpink;" d="m 2651.89,3824.47 c -3.88,23.4 -41.28,24.49 -40.37,-6.47 3.87,-23.3 41.25,-24.59 40.37,6.47"/><path id="path72" style="fill:hotpink;stroke-width:20px;stroke:hotpink;" d="m 1188.56,2649.44 c -21.23,14.22 -45.08,-24.2 -19.59,-35.46 21.21,-14.21 45.11,24.19 19.59,35.46"/><path id="path74" style="fill:hotpink;stroke-width:20px;stroke:hotpink;" d="m 2384.29,1191.48 c -22.35,21.64 -46.61,-6.86 -32,-25.44 22.3,-21.6 46.65,6.82 32,25.44"/><path id="path76" style="fill:hotpink;stroke-width:20px;stroke:hotpink;" d="m 3811.44,2350.56 c 21.23,-14.22 45.08,24.2 19.59,35.46 -21.21,14.21 -45.11,-24.19 -19.59,-35.46"/><path id="path78" style="fill:hotpink;stroke-width:20px;stroke:hotpink;" d="m 3808.52,2615.71 c 18.51,-14.56 47.19,9.55 25.43,32 -18.58,14.61 -47.12,-9.59 -25.43,-32"/><path id="path80" style="fill:hotpink;stroke-width:20px;stroke:hotpink;" d="m 2386.02,3831.03 c -11.3,25.61 -49.66,1.61 -35.46,-19.59 11.32,-25.65 49.63,-1.56 35.46,19.59"/><path id="path82" style="fill:hotpink;stroke-width:20px;stroke:hotpink;" d="m 1191.48,2384.29 c -18.51,14.56 -47.19,-9.55 -25.44,-32 18.59,-14.61 47.13,9.59 25.44,32"/><path id="path84" style="fill:hotpink;stroke-width:20px;stroke:hotpink;" d="m 2644.43,1194.76 c -19.54,16.66 -47.68,-15.65 -25.44,-32 19.55,-16.67 47.67,15.67 25.44,32"/><path id="path86" style="fill:hotpink;stroke-width:20px;stroke:hotpink;" d="m 2528.78,3853.09 c -2.45,33.89 -55.1,33.95 -57.56,0 -3.04,-13.93 2.85,-29.72 25.14,-37.46 4.37,3.76 2.69,3.94 7.28,0 22.12,7.68 28.23,23.29 25.14,37.46"/><path id="path88" style="fill:hotpink;stroke-width:20px;stroke:hotpink;" d="m 3869.19,2479.24 c 27.99,24.01 -8.52,63.38 -36.05,46.56 -9.53,-3.68 -21,-18.09 -14.38,-25.8 -12.72,-14.81 29.7,-44.53 50.43,-20.76"/><path id="path90" style="fill:hotpink;stroke-width:20px;stroke:hotpink;" d="m 1130.81,2520.76 c -27.99,-24.01 8.52,-63.38 36.04,-46.56 9.55,3.68 21.01,18.1 14.39,25.8 12.72,14.81 -29.7,44.53 -50.43,20.76"/><path id="path92" style="fill:hotpink;stroke-width:20px;stroke:hotpink;" d="m 2510.18,1123.17 c -11.9,-5.32 31.47,11.01 17.08,40.78 -6.85,14.29 -11.21,16.11 -23.62,20.42 -4.37,-3.76 -2.7,-3.94 -7.28,0 -51.28,-17.81 -15.01,-77.76 13.82,-61.2"/><path id="path94" style="fill:hotpink;stroke-width:20px;stroke:hotpink;" d="m 2500.14,3879.5 c -0.07,0 -0.21,0 -0.28,0 0.03,0 0.1,-0.01 0.14,0 0.04,-0.01 0.11,0 0.14,0"/><path id="path96" style="fill:hotpink;stroke-width:20px;stroke:hotpink;" d="m 3879.5,2499.86 c 0,0.07 0,0.21 0,0.28 0,-0.06 -0.02,-0.08 0,-0.14 -0.02,-0.06 0,-0.09 0,-0.14"/><path id="path98" style="fill:hotpink;stroke-width:20px;stroke:hotpink;" d="m 2499.86,1120.5 c 0.07,0 0.21,0 0.28,0 -0.08,0 -0.03,0.02 -0.14,0 -0.11,0.02 -0.06,0 -0.14,0"/><path id="path100" style="fill:hotpink;stroke-width:20px;stroke:hotpink;" d="m 1120.5,2500.14 c 0,-0.07 0,-0.21 0,-0.28 0,0.05 0.02,0.08 0,0.14 0.02,0.06 0,0.08 0,0.14"/><path id="path102" style="fill:hotpink;stroke-width:20px;stroke:hotpink;" d="m 3298.15,3553.43 c -6.3,17.48 -35.38,13.22 -30.32,-10.71 6.31,-17.5 35.38,-13.18 30.32,10.71"/><path id="path104" style="fill:hotpink;stroke-width:20px;stroke:hotpink;" d="m 1466.09,3290.26 c -7.67,18.73 -39.87,3.72 -28.34,-14.54 7.66,-18.73 39.88,-3.74 28.34,14.54"/><path id="path106" style="fill:hotpink;stroke-width:20px;stroke:hotpink;" d="m 1727.28,1464.29 c -20.73,13.09 -34.73,-12.79 -20.54,-24.73 20.44,-12.91 34.97,12.59 20.54,24.73"/><path id="path108" style="fill:hotpink;stroke-width:20px;stroke:hotpink;" d="m 3535.71,1727.28 c -13.04,-20.71 12.77,-34.75 24.73,-20.54 13.09,20.76 -12.81,34.7 -24.73,20.54"/><path id="path110" style="fill:hotpink;stroke-width:20px;stroke:hotpink;" d="m 3558.35,3270.63 c 15.89,12.27 -4.3,39.25 -20.54,24.72 -15.93,-12.31 4.3,-39.22 20.54,-24.72"/><path id="path112" style="fill:hotpink;stroke-width:20px;stroke:hotpink;" d="m 1732.21,3552.87 c -4.78,21.26 -38.03,9.05 -30.4,-9.58 4.84,-21.53 37.94,-8.9 30.4,9.58"/><path id="path114" style="fill:hotpink;stroke-width:20px;stroke:hotpink;" d="m 1464.29,1727.28 c -12.04,14.31 -37.75,0.11 -24.73,-20.54 11.95,-14.19 37.81,-0.22 24.73,20.54"/><path id="path116" style="fill:hotpink;stroke-width:20px;stroke:hotpink;" d="m 3295.35,1462.19 c -12.31,15.93 -39.23,-4.3 -24.72,-20.54 12.26,-15.87 39.26,4.27 24.72,20.54"/><path id="path118" style="fill:hotpink;stroke-width:20px;stroke:hotpink;" d="m 3373.36,3488.79 c 15.46,13.68 -7.66,35.58 -20.95,22.05 -15.46,-13.68 7.67,-35.59 20.95,-22.05"/><path id="path120" style="fill:hotpink;stroke-width:20px;stroke:hotpink;" d="m 1514.31,3368.14 c -5.12,18.44 -37.05,7.92 -28.24,-10.51 5.1,-18.43 37.06,-7.95 28.24,10.51"/><path id="path122" style="fill:hotpink;stroke-width:20px;stroke:hotpink;" d="m 1648.14,1510.66 c -18.03,14.58 -34.04,-8.16 -22.05,-20.95 18.05,-14.59 34.02,8.18 22.05,20.95"/><path id="path124" style="fill:hotpink;stroke-width:20px;stroke:hotpink;" d="m 3485.69,1631.86 c 5.12,-18.44 37.05,-7.92 28.24,10.51 -5.1,18.43 -37.06,7.95 -28.24,-10.51"/><path id="path126" style="fill:hotpink;stroke-width:20px;stroke:hotpink;" d="m 3496.47,3348.05 c 22.76,-2.09 23.97,25.65 6.69,29.67 -22.87,2.09 -23.97,-25.65 -6.69,-29.67"/><path id="path128" style="fill:hotpink;stroke-width:20px;stroke:hotpink;" d="m 1650.87,3506 c -6.82,19.39 -36.74,4.32 -27.5,-12.37 6.91,-19.66 36.66,-4.19 27.5,12.37"/><path id="path130" style="fill:hotpink;stroke-width:20px;stroke:hotpink;" d="m 1510.66,1648.14 c -12.73,11.93 -35.58,-3.93 -20.95,-22.05 12.76,-11.96 35.56,3.96 20.95,22.05"/><path id="path132" style="fill:hotpink;stroke-width:20px;stroke:hotpink;" d="m 3351.86,1510.66 c -12,-12.79 3.99,-35.54 22.05,-20.95 11.99,12.78 -3.98,35.57 -22.05,20.95"/><path id="path134" style="fill:hotpink;stroke-width:20px;stroke:hotpink;" d="m 3444.34,3434.46 c 22.6,-4.61 29.2,17.99 19.09,28.97 -21.82,20.05 -42.91,-20.71 -19.09,-28.97"/><path id="path136" style="fill:hotpink;stroke-width:20px;stroke:hotpink;" d="m 3466.07,1556.48 c -7.18,18.19 -40.34,8.82 -31.57,-12.1 5.61,-24.16 44.58,-9.43 31.57,12.1"/><path id="path138" style="fill:hotpink;stroke-width:20px;stroke:hotpink;" d="m 1555.66,1565.54 c -22.6,4.61 -29.23,-18.01 -19.09,-28.97 21.82,-20.05 42.91,20.71 19.09,28.97"/><path id="path140" style="fill:hotpink;stroke-width:20px;stroke:hotpink;" d="m 1533.93,3443.52 c 7.21,-18.25 40.3,-8.72 31.57,12.1 -5.59,24.08 -44.59,9.45 -31.57,-12.1"/></g></g></svg>