<?xml version="1.0" standalone="no"?>
<!DOCTYPE svg PUBLIC "-//W3C//DTD SVG 20010904//EN"
 "http://www.w3.org/TR/2001/REC-SVG-20010904/DTD/svg10.dtd">
<svg version="1.0" xmlns="http://www.w3.org/2000/svg"
 width="512.000000pt" height="512.000000pt" viewBox="0 0 512.000000 512.000000"
 preserveAspectRatio="xMidYMid meet">

<g transform="translate(0.000000,512.000000) scale(0.100000,-0.100000)"
fill="plum" stroke="none">
<path d="M2470 4900 c-89 -11 -142 -26 -228 -66 -186 -85 -332 -239 -403 -426
l-21 -56 -55 24 c-138 62 -337 81 -486 48 -40 -8 -119 -38 -176 -66 -90 -43
-116 -62 -191 -136 -90 -90 -139 -163 -183 -272 -70 -177 -63 -412 16 -591
l25 -57 -56 -21 c-234 -89 -420 -302 -478 -548 -23 -97 -21 -267 5 -364 62
-239 244 -443 473 -530 l56 -21 -25 -57 c-43 -97 -63 -194 -63 -310 0 -221 71
-392 225 -547 80 -81 103 -98 195 -142 128 -61 216 -82 353 -82 113 0 211 20
308 63 l57 25 21 -56 c89 -234 303 -420 548 -478 92 -22 258 -21 348 1 250 62
457 243 546 477 l21 56 57 -25 c97 -43 195 -63 308 -63 137 0 225 21 353 82
92 44 115 61 196 142 81 81 98 104 142 196 61 128 82 216 82 353 0 113 -20
211 -63 308 l-25 57 56 21 c234 89 420 303 478 548 23 96 21 267 -5 364 -61
235 -238 437 -460 524 l-69 27 25 57 c43 97 63 195 63 310 0 221 -71 392 -225
547 -80 81 -103 98 -195 142 -128 61 -216 82 -353 82 -113 0 -211 -20 -308
-63 l-57 -25 -21 56 c-124 326 -466 533 -811 492z m244 -176 c98 -24 193 -80
276 -163 112 -114 166 -230 179 -390 8 -98 23 -109 81 -57 64 58 154 112 228
138 57 20 86 23 202 23 122 -1 141 -3 202 -27 177 -70 307 -203 370 -378 19
-55 23 -84 23 -195 0 -110 -4 -140 -23 -197 -26 -74 -80 -164 -138 -228 -53
-58 -42 -73 62 -82 164 -15 292 -76 400 -191 112 -118 165 -253 165 -417 0
-174 -55 -305 -180 -430 -114 -112 -230 -166 -390 -179 -98 -8 -109 -23 -57
-81 56 -63 112 -153 136 -223 31 -87 38 -258 15 -346 -58 -223 -225 -390 -446
-447 -88 -23 -260 -15 -346 16 -70 24 -160 80 -223 136 -58 53 -73 42 -82 -62
-20 -218 -138 -399 -324 -496 -97 -51 -171 -69 -284 -69 -174 0 -305 55 -430
180 -112 114 -166 230 -179 390 -8 98 -23 109 -81 57 -64 -58 -154 -112 -228
-138 -57 -19 -87 -23 -197 -23 -111 0 -140 4 -195 23 -180 65 -317 202 -382
382 -19 55 -23 84 -23 195 0 110 4 140 23 197 26 74 80 164 138 228 53 58 42
73 -62 82 -164 15 -292 76 -400 191 -112 118 -165 253 -165 417 0 174 55 305
180 430 114 112 230 166 390 179 98 8 109 23 57 81 -56 63 -112 153 -136 223
-31 87 -38 258 -15 347 57 221 223 387 446 445 88 23 259 16 346 -15 70 -24
160 -80 223 -136 58 -53 73 -42 82 62 15 164 76 292 191 400 64 61 157 117
239 143 93 30 219 32 332 5z"/>
<path d="M2496 4587 c-47 -51 -155 -238 -208 -362 -94 -221 -130 -411 -109
-587 13 -116 39 -198 97 -307 24 -46 43 -85 42 -86 -2 -2 -20 -10 -40 -18
l-38 -16 -6 27 c-18 81 -29 114 -60 180 -130 284 -424 487 -856 592 -151 37
-181 38 -213 5 -34 -33 -32 -66 9 -228 74 -287 176 -491 322 -647 130 -137
266 -215 446 -254 l27 -6 -16 -38 c-8 -20 -16 -38 -18 -40 -1 -1 -40 18 -86
42 -236 125 -481 135 -799 34 -162 -51 -358 -159 -451 -248 -46 -44 -52 -85
-16 -124 55 -62 333 -212 494 -266 146 -49 226 -62 368 -63 161 -1 258 22 394
94 52 27 95 48 97 47 1 -2 9 -20 17 -40 l16 -38 -27 -6 c-180 -39 -316 -117
-446 -254 -146 -156 -248 -360 -322 -647 -41 -162 -43 -195 -9 -228 32 -33 62
-32 213 5 433 106 725 308 856 592 31 66 42 99 60 180 l6 26 40 -15 c22 -9 39
-19 38 -22 -2 -3 -26 -53 -55 -111 -70 -144 -87 -214 -86 -375 0 -142 14 -218
64 -369 63 -190 235 -491 292 -510 49 -17 77 2 139 94 70 105 167 296 206 410
48 139 66 241 66 380 -1 155 -18 229 -87 370 -29 58 -53 108 -55 111 -1 3 16
13 38 22 l40 15 6 -26 c39 -180 117 -317 254 -446 156 -146 360 -248 647 -322
162 -41 195 -43 228 -9 34 33 32 66 -9 228 -134 520 -387 818 -768 901 l-26 6
15 40 c9 22 19 39 22 38 3 -2 53 -26 111 -55 137 -67 229 -88 385 -86 131 1
217 16 359 64 190 63 491 235 510 292 17 49 -2 77 -94 139 -105 70 -296 167
-410 206 -138 48 -241 66 -380 66 -174 -1 -304 -37 -448 -126 -38 -23 -35 -25
-55 24 l-16 38 27 6 c180 39 316 117 446 254 146 156 248 360 322 647 41 162
43 195 9 228 -31 32 -62 32 -195 0 -447 -108 -742 -309 -874 -597 -31 -66 -42
-99 -60 -180 l-6 -26 -40 15 c-22 9 -39 19 -38 22 2 3 26 53 55 111 70 144 87
214 86 375 0 142 -14 219 -64 369 -53 160 -202 438 -265 494 -37 33 -80 29
-118 -11z m121 -139 c256 -412 310 -778 157 -1068 -59 -110 -48 -105 -214
-105 -166 0 -155 -5 -214 105 -54 103 -77 191 -83 315 -9 181 35 362 138 567
51 102 149 268 159 268 3 0 28 -37 57 -82z m-1153 -569 c300 -100 520 -267
624 -475 27 -54 61 -160 64 -205 3 -32 -2 -39 -52 -80 -30 -25 -74 -69 -99
-99 -41 -50 -48 -55 -80 -52 -45 3 -151 37 -205 64 -176 89 -326 263 -427 499
-45 103 -104 300 -115 377 l-6 50 102 -24 c57 -13 144 -38 194 -55z m2486 52
c0 -36 -59 -250 -95 -343 -103 -268 -258 -458 -451 -556 -53 -27 -160 -61
-205 -64 -32 -3 -39 2 -80 52 -25 30 -69 74 -99 99 -50 41 -55 48 -52 80 3 45
37 152 64 205 122 241 382 417 761 516 136 35 157 37 157 11z m-1446 -878 c14
-16 32 -37 40 -48 14 -19 15 -19 37 9 26 34 60 66 69 66 9 0 36 -59 44 -96 l7
-32 56 34 c31 19 60 34 64 34 13 0 22 -67 15 -105 -7 -33 -6 -34 17 -26 13 5
44 11 68 13 43 3 44 3 41 -26 -2 -16 -12 -46 -22 -67 l-19 -37 46 -7 c25 -4
57 -11 71 -16 24 -9 24 -10 7 -37 -10 -15 -29 -39 -42 -53 l-24 -27 44 -21
c66 -32 77 -48 47 -71 -14 -11 -42 -27 -62 -36 l-37 -17 44 -49 c25 -28 45
-54 45 -59 0 -10 -66 -29 -102 -29 -32 0 -33 -2 -14 -38 7 -15 17 -42 21 -61
l7 -34 -53 5 c-30 3 -62 9 -71 13 -16 6 -18 0 -18 -64 0 -42 -4 -71 -10 -71
-16 0 -88 38 -95 50 -12 19 -21 10 -32 -32 -7 -24 -19 -52 -27 -63 -16 -20
-16 -19 -49 16 -19 19 -39 44 -46 55 -11 19 -11 19 -22 0 -7 -11 -27 -36 -46
-55 -33 -35 -33 -36 -49 -16 -8 11 -20 39 -27 63 -11 42 -20 51 -32 32 -7 -12
-79 -50 -95 -50 -6 0 -10 29 -10 71 0 64 -2 70 -17 64 -10 -4 -42 -10 -72 -13
l-53 -5 7 34 c4 19 14 46 21 61 19 36 18 38 -13 38 -37 0 -103 19 -103 29 0 5
20 31 45 59 l44 49 -37 17 c-20 9 -48 25 -62 36 -30 23 -19 39 47 71 l44 21
-24 27 c-13 14 -32 38 -42 53 -17 27 -17 28 7 37 14 5 46 12 71 16 l46 7 -19
37 c-10 21 -20 51 -22 67 -3 29 -2 29 41 26 24 -2 55 -8 68 -13 23 -8 24 -7
17 26 -7 38 2 105 15 105 4 0 33 -15 64 -34 l56 -34 7 32 c8 39 35 96 45 96 4
0 19 -12 33 -27z m-899 -223 c73 -23 185 -78 220 -108 18 -16 20 -29 20 -162
0 -166 5 -155 -105 -214 -100 -53 -191 -77 -310 -83 -173 -9 -342 29 -530 118
-107 51 -310 168 -310 179 0 11 203 128 310 179 103 49 236 93 335 111 88 16
291 5 370 -20z m2272 20 c110 -18 236 -60 362 -121 118 -56 291 -157 291 -170
0 -10 -205 -128 -310 -178 -188 -89 -357 -127 -530 -118 -119 6 -210 30 -310
83 -110 59 -105 48 -105 214 0 166 -5 156 105 213 70 37 140 62 211 76 62 12
213 13 286 1z m-1875 -749 c26 -33 72 -79 102 -102 63 -50 64 -52 25 -178 -95
-307 -389 -524 -859 -635 l-102 -24 6 50 c11 77 70 274 115 377 107 250 263
425 453 510 63 28 153 54 203 60 6 0 31 -26 57 -58z m1239 45 c249 -53 459
-251 590 -557 43 -99 102 -292 114 -371 9 -59 10 -59 -149 -18 -380 98 -641
274 -764 516 -27 53 -61 160 -64 205 -3 32 2 39 52 80 30 25 75 71 100 102 25
31 47 57 50 57 3 0 35 -7 71 -14z m-519 -321 c10 -11 33 -49 52 -85 128 -244
111 -550 -50 -872 -49 -99 -155 -278 -164 -278 -24 1 -198 332 -239 455 -97
293 -77 548 61 755 l30 45 146 0 c135 0 148 -2 164 -20z"/>
<path d="M2489 3937 c-98 -66 -52 -212 68 -212 39 0 49 5 79 37 25 28 34 47
34 73 0 50 -23 89 -64 109 -46 22 -77 20 -117 -7z"/>
<path d="M1605 3571 c-64 -28 -92 -111 -56 -168 43 -69 126 -79 182 -24 50 50
50 107 1 162 -29 32 -89 47 -127 30z"/>
<path d="M3402 3570 c-18 -11 -40 -37 -49 -58 -21 -50 -2 -107 46 -139 43 -29
79 -29 122 0 44 30 61 63 55 111 -10 83 -104 130 -174 86z"/>
<path d="M2489 2777 c-57 -21 -97 -54 -126 -105 -23 -38 -28 -59 -28 -113 0
-56 5 -73 30 -115 19 -30 49 -60 79 -79 42 -25 59 -30 116 -30 57 0 74 5 116
30 30 19 60 49 79 79 25 42 30 59 30 116 0 57 -5 74 -30 116 -56 90 -175 135
-266 101z"/>
<path d="M1219 2655 c-28 -15 -59 -70 -59 -105 0 -29 26 -76 52 -94 13 -9 43
-16 71 -16 40 0 54 5 77 28 98 98 -20 253 -141 187z"/>
<path d="M3801 2677 c-48 -17 -76 -58 -76 -114 0 -39 5 -49 37 -79 28 -25 47
-34 73 -34 50 0 89 23 109 64 21 45 20 74 -4 113 -30 50 -83 69 -139 50z"/>
<path d="M1615 1760 c-44 -18 -70 -59 -70 -111 0 -42 5 -53 33 -81 28 -28 39
-33 81 -33 58 0 95 28 112 85 27 89 -70 176 -156 140z"/>
<path d="M3423 1765 c-37 -16 -73 -68 -73 -106 0 -32 38 -89 70 -107 37 -19
97 -8 131 24 56 54 45 142 -23 184 -39 23 -61 24 -105 5z"/>
<path d="M2514 1384 c-84 -41 -85 -168 0 -208 45 -21 74 -20 113 4 40 24 55
53 55 102 -1 50 -24 86 -67 104 -43 18 -62 17 -101 -2z"/>
</g>
</svg>
