<svg xmlns:dc="http://purl.org/dc/elements/1.1/" xmlns:cc="http://creativecommons.org/ns#" xmlns:rdf="http://www.w3.org/1999/02/22-rdf-syntax-ns#" xmlns:svg="http://www.w3.org/2000/svg" xmlns="http://www.w3.org/2000/svg" viewBox="0 0 666.66669 666.66669" height="666.66669" width="666.66669" xml:space="preserve" id="svg2" version="1.1"><metadata id="metadata8"><rdf:RDF><cc:Work rdf:about=""><dc:format>image/svg+xml</dc:format><dc:type rdf:resource="http://purl.org/dc/dcmitype/StillImage"/></cc:Work></rdf:RDF></metadata><defs id="defs6"/><g transform="matrix(1.3333333,0,0,-1.3333333,0,666.66667)" id="g10"><g transform="scale(0.1)" id="g12"><path id="path16" style="stroke-width:30px;stroke:deepskyblue;" d="m 2500,3769.54 c -700.02,0 -1269.53,-569.52 -1269.53,-1269.54 0,-700.02 569.51,-1269.53 1269.53,-1269.53 700.02,0 1269.53,569.51 1269.53,1269.53 0,700.02 -569.51,1269.54 -1269.53,1269.54 z m 0,-2557.61 c -710.24,0 -1288.07,577.83 -1288.07,1288.07 0,710.24 577.83,1288.07 1288.07,1288.07 710.24,0 1288.07,-577.83 1288.07,-1288.07 0,-710.24 -577.83,-1288.07 -1288.07,-1288.07"/><path id="path18" style="stroke-width:30px;stroke:deepskyblue;" d="m 4236.36,2451.58 c -14.28,4.14 -26.41,1.4 -143.25,23.05 4.44,24.5 4.61,25.33 0,50.74 117.34,21.75 128.8,18.86 143.25,23.05 8.9,-44.75 9.14,-50.89 0,-96.84 z m -43.2,-133.88 c -0.94,0.46 -126.98,58.63 -129.29,58.86 19.76,50.65 -15.04,41.68 150.21,-6.81 -5.4,-15.4 -10.93,-30.12 -20.92,-52.05 z m -85.83,-136.71 c -123.77,115.68 -127.99,25.63 -72.16,132.12 14.26,-13.83 95.42,-70.91 111.12,-80.02 -11.29,-17 -22.96,-33.02 -38.96,-52.1 z m -59.5,-61.25 c -46.63,48.57 -62.52,66.3 -85.45,88.04 47.92,53.06 21.53,47.25 59.22,23.1 46.14,-29.57 73.98,-56.05 77.73,-59.14 -16.12,-18.42 -33.31,-35.79 -51.5,-52 z m -57.26,-45.16 c -0.63,0.93 -64.07,85.26 -70.34,92.35 52.77,44.99 18.53,55.22 113.61,-49.19 4.86,-5.33 14.43,-3.04 -43.27,-43.16 z m -215.61,-94.68 c -3.39,22.1 -12.05,78.86 -17.43,100.61 77.45,18.47 41.56,49.61 90.68,-79.69 -24.16,-8.73 -48.58,-15.45 -73.25,-20.92 z m 22.38,-42.73 c -45.19,-19.06 -85.19,-31.99 -87.2,-32.9 -29,42.88 -49.37,48.42 -42.61,47.9 139.17,-10.83 103.16,40.12 129.81,-15 z m 23.58,-55.1 c -7.13,-0.08 -45.22,-6.91 -80.39,-20.81 -9.82,-3.88 -0.55,-4.38 -24.64,34.37 98.71,35.17 78.91,56.08 105.03,-13.56 z m 22.48,-64.33 c -111.27,-12.14 -78.11,-30.6 -104.06,31.77 99.86,32.76 79.61,42.07 104.06,-31.77 z m 18.91,-59.87 c -120.91,-0.09 -86.49,-35.23 -104.74,36.81 29.41,4.22 59.16,9.27 87.78,17.14 5.91,-17.85 11.75,-35.82 16.96,-53.95 z m -59.16,-377.9 c -33.02,-62.94 -7.55,-34.93 -106.62,24.59 -10.93,6.55 -5.83,-2.94 19.15,42.74 104.83,-63.85 101.22,-41.12 87.47,-67.33 z m -72.32,-104.44 c -10.05,9.55 -30.59,25 -86.17,87 47.88,35.45 20.92,66.35 131.56,-27.31 -13.88,-20.81 -29.05,-40.65 -45.39,-59.69 z m -152.49,-37.67 c -35.15,63.5 -31.61,37.24 13.36,71.56 21.23,-34.31 35.69,-56.57 67.25,-89.49 -67.82,-43.97 -50.36,-36.72 -80.61,17.93 z m -105.56,-100.67 c -9.15,86.64 -34.13,105.12 -21.06,108.42 46.22,11.66 34.79,16.16 42.94,-1.09 9.02,-19.06 37.29,-86.4 37.62,-86.87 1.58,-2.28 -50.9,-18.1 -59.5,-20.46 z m -145.3,-16.2 c -5.4,0.41 -3.38,-10.77 0.42,107.87 69.39,1.29 49.27,30.45 65.91,-106.72 -22.13,-2.25 -44.3,-2.83 -66.33,-1.15 z m -203.01,55.64 c 2.85,7.54 5.75,31.67 22.51,75.13 4.81,12.49 -1.08,9.35 28.51,-0.62 24.77,-8.34 20.89,3.82 13.09,-49.6 -7.61,-52.19 8.97,-51.81 -64.11,-24.91 z m -20.1,107.48 c 48.18,-29.95 37.88,-1.96 22.46,-60.44 -2.2,-8.31 -8.8,-36.03 -8.9,-44.59 -68.85,25.82 -49.04,5 -13.56,105.03 z m -56.54,48.35 c -0.09,1.23 16.56,-21.4 47.9,-42.59 -1.3,-2.9 -13.99,-42.39 -32.9,-87.21 -54.27,26.24 -4.3,-7.67 -15,129.8 z m -48.65,-180.67 c -13.8,5.24 -80.92,29.65 -99.12,34.88 30.94,72.84 -8.93,58.17 120.04,38.37 -5.47,-24.67 -12.19,-49.09 -20.92,-73.25 z m -67.56,-133.19 c -0.94,0.75 -83.7,60.55 -93.82,66.56 53.29,64.58 26.04,59.17 52.61,42.48 2.8,-1.75 -16.97,10.63 77.11,-48.25 -10.81,-20.97 -22.82,-41.25 -35.9,-60.79 z M 2828.26,900.672 c -2.96,3.59 -29.67,31.75 -59.14,77.726 -24.13,37.662 -29.93,11.34 23.1,59.222 21.7,-22.89 38.58,-37.972 88.04,-85.448 -16.21,-18.192 -33.58,-35.383 -52,-51.5 z m -61.35,-46.961 c -9.25,15.949 -66.31,96.988 -80.02,111.121 94.34,49.458 28.34,56.278 116.34,-53.352 16.39,-20.429 29.46,-14.082 -36.32,-57.769 z m -128.41,-64.93 c -17.83,-6.551 -38.66,113.809 -52.11,133.938 44.07,14.519 29.6,28.722 68.28,-53.879 35.28,-75.36 35.58,-61.051 -16.17,-80.059 z m -79.67,-23.07 c 0.09,9.098 -10.71,72.781 -10.87,73.738 -15.09,88.16 -29.72,61.141 35.79,82.391 -2.43,-20.051 28.15,-121.059 35.23,-139.828 -19.75,-6.473 -39.84,-11.891 -60.15,-16.301 z m -107.25,-2.07 c 4.12,14.218 1.44,26.699 23.05,143.25 24.71,-4.481 25.94,-4.493 50.74,0 21.71,-117.11 18.87,-128.832 23.05,-143.25 -47.92,-9.539 -52.83,-8.762 -96.84,0 z m -70.57,18.371 c 63.04,166.867 -0.59,144.047 85.2,126.41 -10.62,-46.531 -25.19,-127.762 -25.04,-142.711 -20.31,4.41 -40.4,9.828 -60.16,16.301 z m -63.31,24.828 c 0.46,0.93 58.63,126.992 58.86,129.289 50.64,-19.758 41.68,15.031 -6.81,-150.207 -15.72,5.508 -30.42,11.07 -52.05,20.918 z m -136.71,85.832 c 118.42,126.648 22.95,129.388 132.12,72.16 -13.8,-14.23 -70.9,-95.391 -80.02,-111.121 -16.84,11.18 -32.93,22.871 -52.1,38.961 z m -61.25,59.5 c 48.57,46.629 66.3,62.508 88.04,85.448 53.07,-47.921 47.25,-21.53 23.1,-59.222 -29.54,-46.089 -56.12,-74.046 -59.14,-77.726 -18.42,16.117 -35.79,33.308 -52,51.5 z m -87.26,127.218 c 94.08,58.88 74.31,46.5 77.11,48.25 26.62,16.72 -0.98,22.45 52.61,-42.48 -10.17,-6.04 -92.89,-65.82 -93.83,-66.56 -13.07,19.54 -25.08,39.82 -35.89,60.79 z m -52.58,145.65 c 22.08,3.39 78.86,12.05 100.61,17.43 18.46,-77.45 49.6,-41.55 -79.69,-90.68 -8.73,24.16 -15.45,48.58 -20.92,73.25 z m -42.73,-22.38 c -19.4,45.98 -31.86,84.9 -32.9,87.21 42.68,28.86 48.4,49.23 47.9,42.59 -10.83,-139.17 40.12,-103.15 -15,-129.8 z m -36.9,-16.74 c -35.13,-13.9 -4.08,-8.26 -41.02,78.9 41.24,18.61 34.99,23.33 38.06,14.78 33.08,-91.91 49.18,-75.39 2.96,-93.68 z m -82.53,-29.32 c -12.15,111.23 -30.5,78.16 31.77,104.06 32.73,-99.88 42.11,-79.61 -31.77,-104.06 z m -211.55,-34.46 c 16.66,137.31 -3.44,108.01 65.91,106.72 3.79,-118.56 5.77,-107.46 0.42,-107.87 -22.03,-1.68 -44.2,-1.1 -66.33,1.15 z m -139.26,34.97 c 4.81,2.67 9.48,23.69 32.9,75.51 14.62,32.32 2.32,24.25 53.15,11.88 -11.98,-34.5 -21.92,-70.9 -25.77,-107.31 -20.39,5.6 -40.55,12.3 -60.28,19.92 z m -125.88,62.82 c 31.53,32.89 46.1,55.32 67.25,89.49 44.9,-34.26 48.4,-8.25 13.36,-71.56 -30.24,-54.63 -12.81,-61.89 -80.61,-17.93 z m -117.27,115.29 c 25.88,21.9 58.65,46.14 92,65.18 41.86,-50.71 67.02,-16.85 -46.61,-124.87 -16.34,19.04 -31.51,38.88 -45.39,59.69 z m -34.93,60.36 c 9.59,3.85 94.53,51.15 95.47,51.72 24.76,-45.28 29.94,-36.27 19.15,-42.74 -101.64,-61.07 -72.44,-93.06 -114.62,-8.98 z m -34.2,416.24 c 109.02,-29.97 88.72,6.6 78.87,-62.62 -1.78,0.4 -1.73,0.2 -22.33,1.94 -91.04,7.75 -78.31,-5.1 -56.54,60.68 z m 21.98,63.71 c 7.51,-2.84 31.72,-5.77 75.13,-22.51 12.48,-4.81 9.36,1.1 -0.62,-28.51 -8.34,-24.78 3.81,-20.89 -49.6,-13.09 -52.2,7.61 -51.82,-8.98 -24.91,64.11 z m 107.48,20.1 c -29.96,-48.2 -1.87,-37.91 -60.44,-22.46 -8.26,2.19 -36.01,8.8 -44.59,8.9 25.76,68.69 5.12,49.15 105.03,13.56 z m 48.36,56.54 c 1.23,0.09 -21.41,-16.56 -42.61,-47.9 -2.83,1.27 -42.58,14.08 -87.2,32.9 26.24,54.27 -7.67,4.3 129.81,15 z m -180.68,48.65 c 5.5,14.47 29.7,81.08 34.88,99.12 72.77,-30.91 57.98,7.6 38.37,-120.04 -24.67,5.47 -49.09,12.19 -73.25,20.92 z m -190.677,111.13 c 33.864,37.85 58.457,63.52 80.917,90.93 46.34,-49.88 52.23,-15.76 -18.09,-109.2 -15.87,-21.09 -7.67,-28.97 -62.827,18.27 z m -60.445,59.79 c 3.863,3.17 31.941,29.79 77.73,59.14 37.642,24.12 11.356,29.91 59.222,-23.1 -22.94,-21.74 -38.065,-38.68 -85.444,-88.04 -18.196,16.21 -35.383,33.58 -51.508,52 z m -46.961,61.35 c 15.91,9.23 96.961,66.28 111.125,80.02 48.978,-93.42 57.848,-27.09 -53.355,-116.35 -20.422,-16.39 -14.09,-29.43 -57.77,36.33 z m -67.785,136.66 c 165.406,48.54 130.516,57.3 150.207,6.81 -7.063,-0.7 -39.922,-19.57 -103.727,-47.83 -29.078,-12.88 -24.019,-23.02 -46.48,41.02 z m -22.281,178.67 c 14.277,-4.14 26.41,-1.4 143.254,-23.05 -4.446,-24.5 -4.614,-25.33 0,-50.74 -117.348,-21.75 -128.801,-18.86 -143.254,-23.05 -8.918,44.8 -9.129,50.97 0,96.84 z m 43.203,133.88 c 0.933,-0.46 126.98,-58.63 129.285,-58.86 -19.758,-50.65 15.043,-41.68 -150.207,6.81 5.398,15.4 10.93,30.12 20.922,52.05 z m 85.824,136.71 c 123.772,-115.68 127.992,-25.63 72.164,-132.12 -14.258,13.83 -95.426,70.91 -111.125,80.02 11.289,17 22.961,33.02 38.961,52.1 z m 59.508,61.25 c 46.621,-48.57 62.504,-66.3 85.444,-88.04 -47.917,-53.07 -21.53,-47.25 -59.222,-23.1 -46.136,29.57 -74.031,56.1 -77.73,59.14 16.125,18.42 33.312,35.79 51.508,52 z m 57.254,45.16 c 0.63,-0.93 64.07,-85.26 70.34,-92.35 -52.77,-44.99 -18.53,-55.22 -113.61,49.19 -4.855,5.33 -14.43,3.04 43.27,43.16 z m 215.61,94.68 c 3.39,-22.09 12.05,-78.86 17.43,-100.61 -77.45,-18.47 -41.56,-49.61 -90.68,79.69 24.16,8.73 48.58,15.45 73.25,20.92 z m -22.38,42.73 c 45.19,19.06 85.19,31.99 87.2,32.9 29,-42.88 49.37,-48.42 42.61,-47.9 -139.17,10.83 -103.16,-40.12 -129.81,15 z m -23.58,55.1 c 7.12,0.08 45.22,6.91 80.39,20.81 9.82,3.88 0.55,4.39 24.64,-34.37 -98.8,-35.2 -78.96,-55.96 -105.03,13.56 z m -22.48,64.33 c 111.24,12.13 78.05,30.73 104.06,-31.77 -99.86,-32.76 -79.61,-42.07 -104.06,31.77 z m -18.91,59.87 c 120.91,0.09 86.49,35.23 104.74,-36.81 -29.41,-4.22 -59.16,-9.27 -87.78,-17.14 -5.91,17.85 -11.75,35.82 -16.96,53.95 z m 59.16,377.89 c 33.02,62.95 7.55,34.94 106.62,-24.58 10.95,-6.56 5.87,3.02 -19.15,-42.74 -104.83,63.85 -101.22,41.12 -87.47,67.32 z m 72.32,104.45 c 10.05,-9.55 30.59,-25 86.17,-87 -47.89,-35.46 -20.89,-66.36 -131.56,27.31 13.88,20.81 29.05,40.65 45.39,59.69 z m 152.49,37.67 c 35.14,-63.49 31.6,-37.25 -13.36,-71.56 -21.82,35.33 -36.48,57.4 -67.25,89.49 67.82,43.97 50.36,36.72 80.61,-17.93 z m 105.55,100.67 c 9.16,-86.64 34.14,-105.12 21.07,-108.42 -46.22,-11.66 -34.79,-16.16 -42.94,1.09 -9.02,19.06 -37.29,86.4 -37.62,86.87 -1.58,2.28 50.9,18.1 59.49,20.46 z m 145.31,16.2 c 5.4,-0.41 3.38,10.77 -0.42,-107.87 -69.39,-1.29 -49.27,-30.45 -65.91,106.72 22.13,2.25 44.3,2.83 66.33,1.15 z m 203.01,-55.64 c -2.85,-7.54 -5.76,-31.67 -22.51,-75.13 -4.81,-12.49 1.08,-9.35 -28.51,0.62 -24.77,8.34 -20.89,-3.82 -13.09,49.6 7.61,52.17 -9.2,51.9 64.11,24.91 z m 20.1,-107.48 c -48.18,29.95 -37.88,1.96 -22.46,60.44 2.2,8.31 8.8,36.03 8.9,44.59 68.9,-25.84 48.99,-5.16 13.56,-105.03 z m 56.54,-48.35 c 0.09,-1.23 -16.56,21.4 -47.9,42.59 1.28,2.86 13.98,42.37 32.9,87.21 54.27,-26.24 4.3,7.67 15,-129.8 z m 48.65,180.67 c 14.56,-5.54 81.12,-29.71 99.12,-34.88 -30.25,-71.22 7.92,-58.01 -120.04,-38.37 5.47,24.67 12.19,49.09 20.92,73.25 z m 67.55,133.19 c 0.95,-0.75 83.71,-60.55 93.83,-66.56 -53.29,-64.58 -26.04,-59.17 -52.61,-42.48 -2.8,1.75 16.97,-10.63 -77.11,48.25 10.81,20.97 22.82,41.25 35.89,60.79 z m 103.37,117.93 c 2.96,-3.6 29.67,-31.75 59.14,-77.73 24.13,-37.66 29.93,-11.34 -23.1,-59.22 -21.7,22.89 -38.58,37.97 -88.04,85.44 16.21,18.2 33.58,35.39 52,51.51 z m 61.35,46.96 c 9.25,-15.95 66.31,-96.99 80.02,-111.12 -94.4,-49.49 -28.52,-56.06 -116.35,53.35 -16.39,20.43 -29.45,14.09 36.33,57.77 z m 128.41,64.92 c 17.83,6.56 38.66,-113.8 52.11,-133.92 -44.07,-14.53 -29.6,-28.72 -68.28,53.87 -35.28,75.36 -35.58,61.05 16.17,80.05 z m 79.67,23.09 c -0.09,-9.1 10.71,-72.79 10.87,-73.75 15.09,-88.15 29.72,-61.14 -35.79,-82.39 2.43,20.05 -28.15,121.06 -35.24,139.83 19.76,6.47 39.85,11.89 60.16,16.31 z m 107.25,2.06 c -4.16,-14.36 -1.23,-25.56 -23.05,-143.25 -24.71,4.48 -25.94,4.5 -50.74,0 -21.72,117.18 -18.87,128.82 -23.05,143.25 47.92,9.54 52.83,8.76 96.84,0 z m 70.56,-18.37 c -63,-166.8 0.57,-144.04 -85.19,-126.42 10.62,46.52 25.19,127.78 25.04,142.73 20.31,-4.42 40.4,-9.84 60.15,-16.31 z m 63.32,-24.83 c -0.46,-0.93 -58.63,-126.99 -58.86,-129.29 -50.64,19.76 -41.68,-15.03 6.81,150.21 15.72,-5.51 30.42,-11.07 52.05,-20.92 z m 136.71,-85.83 c -118.31,-126.58 -22.9,-129.42 -132.12,-72.16 13.8,14.23 70.9,95.39 80.02,111.12 17.05,-11.32 33.09,-23.01 52.1,-38.96 z m 61.25,-59.51 c -48.57,-46.62 -66.3,-62.5 -88.04,-85.44 -53.07,47.92 -47.25,21.53 -23.1,59.22 29.54,46.09 56.12,74.06 59.14,77.73 18.42,-16.12 35.79,-33.31 52,-51.51 z m 87.26,-127.21 c -94.08,-58.88 -74.31,-46.5 -77.11,-48.25 -26.62,-16.72 0.98,-22.45 -52.61,42.48 10.17,6.04 92.89,65.82 93.82,66.56 13.08,-19.54 25.09,-39.82 35.9,-60.79 z m 52.58,-145.65 c -21.98,-3.38 -78.86,-12.05 -100.61,-17.43 -18.46,77.45 -49.6,41.55 79.69,90.68 8.73,-24.16 15.45,-48.58 20.92,-73.25 z m 42.73,22.38 c 19.36,-45.89 31.86,-84.9 32.9,-87.21 -42.68,-28.86 -48.4,-49.23 -47.9,-42.59 10.83,139.16 -40.12,103.15 15,129.8 z m 36.9,16.74 c 35.13,13.9 4.08,8.26 41.02,-78.9 -41.24,-18.61 -34.99,-23.33 -38.06,-14.78 -33.06,91.85 -49.24,75.37 -2.96,93.68 z m 82.53,29.32 c 12.15,-111.23 30.5,-78.16 -31.77,-104.06 -32.73,99.88 -42.11,79.61 31.77,104.06 z m 211.55,34.46 c -16.66,-137.31 3.44,-108.01 -65.91,-106.72 -3.79,118.56 -5.77,107.47 -0.42,107.87 22.03,1.68 44.2,1.1 66.33,-1.15 z m 139.26,-34.97 c -4.81,-2.67 -9.48,-23.69 -32.9,-75.51 -14.62,-32.32 -2.32,-24.25 -53.15,-11.88 11.98,34.5 21.92,70.9 25.76,107.31 20.4,-5.6 40.56,-12.3 60.29,-19.92 z m 125.88,-62.82 c -30.98,-32.31 -45.71,-54.62 -67.25,-89.49 -44.95,34.29 -48.42,8.22 -13.36,71.56 30.24,54.63 12.82,61.88 80.61,17.93 z m 117.27,-115.29 c -25.32,-21.43 -57.83,-45.67 -92,-65.18 -41.86,50.71 -67.02,16.85 46.61,124.87 16.34,-19.04 31.51,-38.88 45.39,-59.69 z m 34.93,-60.36 c -9.6,-3.85 -94.54,-51.15 -95.47,-51.72 -24.73,45.23 -29.96,36.27 -19.15,42.74 101.65,61.07 72.45,93.06 114.62,8.98 z m 34.2,-416.24 c -109.02,29.97 -88.72,-6.6 -78.87,62.62 1.78,-0.4 1.73,-0.2 22.33,-1.94 91.09,-7.75 78.31,5.1 56.54,-60.68 z m -21.98,-63.71 c -7.51,2.84 -31.72,5.77 -75.13,22.51 -12.47,4.8 -9.36,-1.1 0.62,28.51 8.34,24.78 -3.81,20.89 49.6,13.09 52.2,-7.61 51.82,8.98 24.91,-64.11 z m -107.48,-20.1 c 29.96,48.2 1.86,37.91 60.44,22.46 8.26,-2.19 36.01,-8.8 44.59,-8.9 -25.75,-68.66 -5.15,-49.14 -105.03,-13.56 z m -48.36,-56.54 c -1.23,-0.09 21.41,16.56 42.61,47.9 2.83,-1.27 42.58,-14.08 87.2,-32.9 -26.24,-54.27 7.67,-4.3 -129.81,-15 z m 180.68,-48.65 c -5.5,-14.47 -29.7,-81.08 -34.88,-99.12 -72.77,30.91 -57.98,-7.6 -38.37,120.04 24.67,-5.47 49.09,-12.19 73.25,-20.92 z m 190.68,-111.13 c -33.87,-37.85 -58.46,-63.52 -80.92,-90.93 -46.34,49.88 -52.23,15.76 18.09,109.2 15.87,21.09 7.67,28.97 62.83,-18.27 z m 60.44,-59.79 c -3.7,-3.04 -31.94,-29.79 -77.73,-59.14 -37.64,-24.12 -11.36,-29.91 -59.22,23.1 22.94,21.74 38.06,38.68 85.45,88.04 18.19,-16.21 35.38,-33.58 51.5,-52 z m 46.96,-61.35 c -15.91,-9.23 -96.96,-66.28 -111.12,-80.02 -48.98,93.42 -57.85,27.09 53.35,116.35 20.43,16.39 14.1,29.43 57.77,-36.33 z m 67.79,-136.66 c -165.41,-48.54 -130.52,-57.3 -150.21,-6.81 7.07,0.7 39.92,19.57 103.73,47.83 29.08,12.88 24.02,23.02 46.48,-41.02 z m -135.92,-46.5 c 20.05,-2.44 121.1,28.16 139.83,35.23 6.47,-19.75 11.88,-39.83 16.31,-60.15 -9.11,0.09 -72.79,-10.71 -73.75,-10.87 -88.15,-15.09 -61.15,-29.72 -82.39,35.79 z m 109.78,109.77 c -161.6,-61.36 -107.71,-95.57 -149.36,-13.46 0.96,0.53 113.16,76.28 114.1,76.96 13,-20.44 24.78,-41.66 35.26,-63.5 z m -206.53,238.11 c -0.76,-0.95 -60.57,-83.73 -66.57,-93.83 -64.58,53.29 -59.17,26.05 -42.48,52.61 1.18,1.89 -8.84,-14.11 48.24,77.11 20.98,-10.81 41.26,-22.82 60.81,-35.89 z m -121.56,63.3 c 62.15,-24.21 59.76,-7.04 10.43,-89.59 -21.2,-35.44 -2.34,-29.94 -48.63,-9.11 8.26,18.1 33.27,84.97 38.2,98.7 z m -104.35,452.09 c -12.38,50.87 -20.41,38.54 11.88,53.15 39.88,18.02 73.21,28.73 75.51,32.9 7.62,-19.73 14.32,-39.89 19.91,-60.29 -36.4,-3.84 -72.8,-13.78 -107.3,-25.76 z m 109.06,-197.07 c -119.81,26.91 -93.71,-21.94 -93.35,66.37 76.63,-1.75 78.04,-1.87 88.15,-1.75 17.17,0.2 26.55,13.1 5.2,-64.62 z m 14.45,77.53 c -0.41,-5.34 11,-3.39 -107.87,0.42 -1.29,69.38 -30.44,49.28 106.72,65.9 2.25,-22.12 2.83,-44.29 1.15,-66.32 z m -1.93,73.91 c -136.19,0.52 -103.2,-36 -119.15,35.35 35.01,12.19 70.61,21.01 106.56,29.73 5.63,-21.5 9.98,-43.25 12.59,-65.08 z m -35.73,135.55 c -12.15,2.42 -95.41,-33.51 -101.22,-38.78 -23.04,63.38 -39.3,27.65 65.45,94.56 9.01,5.75 7.64,15.87 35.77,-55.78 z m -116.88,193.89 c -8.41,-8.85 -25.27,-30.83 -87,-86.17 -35.45,47.88 -66.35,20.92 27.31,131.56 20.81,-13.88 40.65,-29.04 59.69,-45.39 z m -181.71,-9.87 c -55.22,27.94 -49.51,1.17 -22.63,66.22 2.74,6.64 16.68,42.82 16.97,53.75 0.03,1.05 34.88,-13.83 61.07,-26.72 -7.23,-9.72 -54.94,-92.31 -55.41,-93.25 z m -141.38,156.12 c 21.84,-2.61 43.59,-6.96 65.09,-12.59 -31.85,-131.29 -21.67,-105.85 -74.59,-98.47 1.8,5.86 9.67,68.53 9.5,111.06 z m -150.58,-110.6 c -68.96,-9.81 -32.88,-29.3 -62.62,78.87 87.93,29.09 39.59,24.25 62.62,-78.87 z m 10.33,1.43 c 0.47,5.08 -7.43,80 -11.18,96.64 21.28,5.85 42.83,10.5 64.7,13.07 1.67,-135.54 17.03,-101.31 -53.52,-109.71 z m -266.2,91.94 c -13.4,-4.81 -80.4,-29.85 -98.7,-38.2 -20.83,46.28 -26.34,27.43 9.11,48.63 82.64,49.4 65.4,51.67 89.59,-10.43 z m -106.89,179.04 c 48.87,-57.05 49.21,-39.49 -33.92,-102.13 -30.34,-22.87 -10.23,-22.24 -57,21.21 27.57,22.59 53.2,47.19 90.92,80.92 z m -194.53,149.05 c 21.85,-10.48 43.07,-22.26 63.5,-35.26 -97.9,-136.13 -55.98,-119.91 -123.8,-92.64 -6.59,2.65 39.96,74.23 60.3,127.9 z m -382.7,-9.4 c 59.2,-130.53 64.4,-115.11 55.98,-118.5 -69.81,-28.08 -26.09,-43.23 -123.8,92.64 70.96,45.14 63.91,34.47 67.82,25.86 z m -198.85,-139.65 c 37.19,-33.26 63.34,-58.32 90.92,-80.92 -49.88,-46.34 -15.76,-52.21 -109.2,18.09 -21.08,15.87 -29.05,7.58 18.28,62.83 z m 9.71,-182.45 c -27.61,-47.73 5.29,-40.36 -116.61,3.41 32.54,83.5 9.34,42.64 116.61,-3.41 z m -372.47,-89.96 c 23.04,103.18 -25.37,107.98 62.62,78.87 -29.97,-109.02 6.61,-88.72 -62.62,-78.87 z m -63.85,111.14 c 21.87,-2.57 43.42,-7.22 64.7,-13.07 -26.85,-119.71 21.91,-93.7 -66.37,-93.34 3.26,142.7 1.02,53.8 1.67,106.41 z m -77.23,-111.6 c -52.91,-7.38 -42.73,-32.84 -74.59,98.47 21.5,5.63 43.25,9.98 65.09,12.59 -0.17,-42.95 7.84,-105.69 9.5,-111.06 z m -200.84,39.56 c -5.74,8.99 -15.87,7.64 55.78,35.77 -2.2,-10.63 32.38,-94.16 38.78,-101.22 -63.35,-23.03 -27.68,-39.25 -94.56,65.45 z m -72.06,-29.36 c 21.77,-25.72 46.14,-58.62 65.18,-92 -51.01,-42.11 -16.93,-67.02 -124.87,46.61 19.04,16.35 38.88,31.51 59.69,45.39 z m -177.57,-243.94 c 0.47,-0.33 67.8,-28.6 86.87,-37.62 17.12,-8.09 12.79,3.4 1.09,-42.94 -3.32,-13.2 -20.4,11.76 -108.41,21.06 1.7,6.22 18.17,61.09 20.45,59.5 z m 28.14,65.89 c 9.81,-7.29 92.31,-54.93 93.25,-55.41 -25.69,-50.77 -12.2,-47.16 -29.43,-38.97 -18.05,8.6 -72.88,32.85 -90.54,33.31 -1.14,0.03 14.29,35.81 26.72,61.07 z m 48.19,-206.29 c -5.86,1.81 -68.53,9.67 -111.06,9.51 2.61,21.83 6.96,43.58 12.59,65.08 131.29,-31.86 105.85,-21.66 98.47,-74.59 z m -112.99,-64.4 c -1.68,22.03 -1.1,44.2 1.15,66.32 123.38,-14.95 108.46,-13.03 110.37,-13 -7.56,-63.57 13.76,-52.35 -60.35,-54.72 -57.26,-1.85 -50.78,-3.67 -51.17,1.4 z m 1.39,-12.83 c 57.46,0.71 -47.32,-1.84 106.41,1.67 0.36,-87.85 26.37,-39.48 -93.35,-66.37 -5.84,21.28 -10.49,42.83 -13.06,64.7 z m 17.77,-319.72 c 4.78,-13.32 29.79,-80.28 38.2,-98.7 -46.28,-20.83 -27.44,-26.32 -48.63,9.11 -49.39,82.65 -51.68,65.4 10.43,89.59 z m -60.75,-27.41 c 57.24,-91.48 47.02,-75.17 48.24,-77.11 16.72,-26.61 22.46,0.97 -42.48,-52.61 -6.05,10.2 -65.82,92.9 -66.57,93.83 19.55,13.07 39.83,25.08 60.81,35.89 z M 932.883,2633.27 c -124.024,78.07 -145.149,30.06 -85.563,123.75 0.93,-0.67 113.168,-76.45 114.094,-76.96 -29.059,-57.3 -18.715,-52.97 -28.531,-46.79 z m -150.871,-14.29 c 166.937,-63.05 144.066,0.64 126.414,-85.19 -46.539,10.62 -127.77,25.19 -142.723,25.04 4.422,20.32 9.84,40.4 16.309,60.15 z m -16.309,-177.81 c 9.102,-0.09 72.789,10.71 73.746,10.87 88.149,15.09 61.149,29.72 82.391,-35.79 -20.051,2.44 -121.102,-28.16 -139.828,-35.23 -6.469,19.75 -11.887,39.83 -16.309,60.15 z m 46.356,-134.69 c 161.605,61.36 107.714,95.57 149.355,13.46 -0.961,-0.53 -113.152,-76.28 -114.094,-76.96 -12.996,20.44 -24.785,41.66 -35.261,63.5 z m 206.531,-238.11 c 0.76,0.95 60.57,83.73 66.57,93.83 64.58,-53.29 59.17,-26.05 42.48,-52.61 -1.18,-1.89 8.84,14.11 -48.24,-77.11 -20.98,10.81 -41.26,22.82 -60.81,35.89 z m 121.56,-63.3 c -62.15,24.21 -59.76,7.04 -10.43,89.59 21.2,35.44 2.34,29.94 48.63,9.11 -8.26,-18.1 -33.28,-84.97 -38.2,-98.7 z m 104.35,-452.09 c 12.38,-50.87 20.41,-38.54 -11.88,-53.15 -39.88,-18.02 -73.21,-28.73 -75.51,-32.9 -7.62,19.73 -14.32,39.89 -19.91,60.29 36.4,3.84 72.8,13.78 107.3,25.76 z m -109.06,197.07 c 119.81,-26.91 93.71,21.95 93.35,-66.37 -76.63,1.75 -78.04,1.87 -88.15,1.75 -17.17,-0.2 -26.55,-13.1 -5.2,64.62 z m -14.45,-77.53 c 0.41,5.34 -11,3.39 107.87,-0.42 1.29,-69.38 30.44,-49.28 -106.72,-65.9 -2.25,22.12 -2.83,44.29 -1.15,66.32 z m 1.93,-73.91 c 136.19,-0.52 103.2,36 119.15,-35.35 -35.01,-12.19 -70.61,-21.01 -106.56,-29.73 -5.63,21.5 -9.98,43.25 -12.59,65.08 z m 35.73,-135.55 c 12.15,-2.42 95.41,33.51 101.22,38.78 23.04,-63.38 39.3,-27.65 -65.45,-94.56 -9.01,-5.75 -7.64,-15.87 -35.77,55.78 z m 116.88,-193.89 c 8.41,8.85 25.27,30.83 87,86.17 35.45,-47.88 66.34,-20.92 -27.31,-131.56 -20.81,13.88 -40.65,29.04 -59.69,45.39 z m 181.71,9.87 c 55.25,-27.96 49.48,-1.23 22.63,-66.22 -2.74,-6.64 -16.68,-42.82 -16.97,-53.75 -0.03,-1.05 -34.88,13.83 -61.07,26.72 7.23,9.72 54.93,92.31 55.41,93.25 z m 141.38,-156.12 c -21.84,2.61 -43.59,6.96 -65.09,12.59 31.85,131.29 21.67,105.85 74.59,98.47 -1.81,-5.86 -9.67,-68.53 -9.5,-111.06 z m 150.58,110.6 c 68.96,9.81 32.88,29.3 62.62,-78.87 -87.93,-29.09 -39.59,-24.26 -62.62,78.87 z m -10.34,-1.43 c -0.46,-5.09 7.43,-79.9 11.19,-96.64 -21.28,-5.85 -42.83,-10.5 -64.7,-13.07 -1.67,135.54 -17.03,101.31 53.51,109.71 z m 266.2,-91.94 c 13.41,4.81 80.41,29.85 98.71,38.2 20.82,-46.28 26.34,-27.43 -9.11,-48.63 -82.64,-49.4 -65.4,-51.67 -89.6,10.43 z m 106.9,-179.041 c -48.87,57.051 -49.21,39.491 33.91,102.131 30.35,22.87 10.24,22.24 57.01,-21.21 -27.57,-22.6 -53.2,-47.19 -90.92,-80.921 z m 194.53,-149.05 c -21.85,10.48 -43.07,22.261 -63.5,35.261 97.9,136.129 55.98,119.918 123.8,92.641 6.59,-2.652 -39.96,-74.231 -60.3,-127.902 z m 382.7,9.402 c -59.2,130.527 -64.4,115.109 -55.98,118.5 69.81,28.078 26.09,43.23 123.8,-92.641 -70.96,-45.14 -63.91,-34.468 -67.82,-25.859 z m 198.85,139.648 c -37.04,33.121 -63.35,58.321 -90.92,80.921 49.88,46.34 15.76,52.21 109.2,-18.09 21.08,-15.87 29.05,-7.58 -18.28,-62.831 z m -9.71,182.451 c 27.61,47.73 -5.29,40.36 116.6,-3.41 -32.53,-83.5 -9.33,-42.64 -116.6,3.41 z m 372.47,89.96 c -23.04,-103.18 25.37,-107.98 -62.62,-78.87 29.97,109.02 -6.61,88.72 62.62,78.87 z m 63.85,-111.14 c -21.87,2.57 -43.42,7.22 -64.7,13.07 26.93,119.64 -22.03,93.7 66.37,93.34 -3.26,-142.7 -1.02,-53.8 -1.67,-106.41 z m 77.23,111.6 c 52.91,7.38 42.73,32.84 74.59,-98.47 -21.5,-5.63 -43.25,-9.98 -65.09,-12.59 0.17,42.95 -7.84,105.69 -9.5,111.06 z m 200.84,-39.56 c 5.74,-8.99 15.87,-7.64 -55.78,-35.77 2.2,10.63 -32.38,94.16 -38.79,101.22 63.39,23.04 27.66,39.3 94.57,-65.45 z m 72.06,29.36 c -21.88,25.84 -46.2,58.73 -65.18,92 51.03,42.12 16.89,67.06 124.87,-46.61 -19.04,-16.35 -38.88,-31.51 -59.69,-45.39 z m 177.57,243.94 c -0.47,0.33 -67.8,28.6 -86.87,37.62 -17.12,8.09 -12.79,-3.4 -1.09,42.94 3.32,13.2 20.4,-11.76 108.41,-21.06 -1.7,-6.22 -18.17,-61.09 -20.45,-59.5 z m -28.14,-65.89 c -9.79,7.28 -92.31,54.93 -93.25,55.42 25.69,50.76 12.2,47.15 29.43,38.96 18.05,-8.6 72.88,-32.85 90.54,-33.31 1.14,-0.03 -14.29,-35.81 -26.72,-61.07 z m -48.19,206.29 c 5.86,-1.8 68.53,-9.67 111.06,-9.51 -2.61,-21.83 -6.96,-43.58 -12.59,-65.08 -131.29,31.86 -105.85,21.66 -98.47,74.59 z m 112.99,64.4 c 1.68,-22.03 1.1,-44.2 -1.15,-66.32 -123.38,14.95 -108.46,13.03 -110.37,13 7.56,63.57 -13.76,52.35 60.35,54.72 57.33,1.85 50.78,3.66 51.17,-1.4 z m -1.39,12.83 c -57.46,-0.71 47.32,1.84 -106.41,-1.67 -0.36,87.85 -26.37,39.48 93.35,66.37 5.84,-21.28 10.49,-42.83 13.06,-64.7 z m -17.77,319.72 c -4.78,13.32 -29.79,80.28 -38.2,98.7 46.28,20.83 27.44,26.32 48.63,-9.11 49.39,-82.65 51.68,-65.4 -10.43,-89.59 z m 60.75,27.41 c -57.24,91.48 -47.02,75.17 -48.24,77.11 -16.72,26.61 -22.46,-0.97 42.48,52.61 6.05,-10.2 65.82,-92.9 66.57,-93.83 -19.55,-13.07 -39.83,-25.08 -60.81,-35.89 z m -214.67,50.1 c -10.09,-2.44 5.67,-11.24 43.86,-3.8 1.43,-21.74 10.68,-80.85 13.88,-101.38 -61.12,-12.66 -41.69,-15.67 -47.5,37.48 -2.68,24.54 -4.03,33.41 0.72,57.95 1.23,6.38 -14.82,8.68 -10.04,-54.78 4.54,-60.37 7.62,-49.83 -38.92,-56.92 -19.87,-3.02 39.23,-63.36 61.79,-122.18 142.67,-372.01 -220.74,-702.1 -568.67,-568.67 -68.56,26.29 -136.52,94.79 -117.56,68.62 6.67,-9.21 -3.12,3.05 -4.62,-6.83 -7.08,-46.48 3.44,-43.46 -56.92,-38.92 -63.36,4.77 -61.15,-11.27 -54.78,-10.04 24.53,4.75 33.5,3.39 57.95,0.72 55.24,-6.05 50.75,16.55 37.48,-47.5 -20.66,3.22 -79.66,12.45 -101.38,13.87 7.33,37.66 -1.55,53.21 -3.8,43.87 -56.6,-233.86 -203.16,-312.449 -417.42,-371.34 -207.81,57.11 -359.74,133.01 -417.42,371.34 -2.09,8.66 -11.49,-4.34 -3.8,-43.87 -21.78,-1.43 -80.89,-10.68 -101.38,-13.87 -12.69,61.27 -15.62,41.69 37.48,47.5 24.5,2.67 33.42,4.03 57.95,-0.72 6.39,-1.23 8.68,14.82 -54.78,10.04 -60.36,-4.54 -49.83,-7.6 -56.92,38.92 -3.41,22.43 -57.58,-37.01 -122.18,-61.79 -348.4,-133.61 -711.37,196.56 -568.67,568.67 26.29,68.56 94.79,136.51 68.62,117.56 -9.23,-6.69 3.06,3.12 -6.83,4.62 -46.52,7.09 -43.45,-3.38 -38.92,56.92 4.77,63.36 -11.27,61.15 -10.04,54.78 9.06,-46.76 -5.02,-60 -0.78,-101.52 0.23,-2.28 7.18,-4.92 -46,6.09 3.22,20.7 12.45,79.68 13.88,101.38 37.65,-7.33 53.11,1.57 43.86,3.8 -226.84,54.9 -309.218,191.37 -371.34,417.42 60.731,220.99 139.94,361.41 371.34,417.42 10.09,2.44 -5.67,11.24 -43.86,3.8 -1.43,21.74 -10.68,80.85 -13.88,101.38 7.99,1.66 46.41,10.16 46,6.09 -4.34,-42.5 10.01,-53.86 0.78,-101.52 -1.23,-6.38 14.82,-8.68 10.04,54.78 -1.05,14.05 -3.1,28.77 -1.78,43.42 1.51,16.63 57.19,7.23 43.64,21.29 28.85,-22.22 -40.25,50.55 -64.73,114.39 -134.28,350.15 198.4,710.66 568.67,568.67 68.56,-26.29 136.52,-94.79 117.56,-68.62 -6.67,9.21 3.12,-3.05 4.62,6.83 7.08,46.48 -3.44,43.46 56.92,38.92 63.36,-4.77 61.15,11.27 54.78,10.04 -46.77,-9.06 -59.99,5.02 -101.52,0.78 -2.28,-0.23 -4.93,-7.17 6.09,46 20.66,-3.22 79.66,-12.45 101.38,-13.87 -7.33,-37.66 1.55,-53.21 3.8,-43.87 55.17,227.92 193.43,309.78 417.42,371.34 220.99,-60.73 361.41,-139.94 417.42,-371.34 2.09,-8.66 11.49,4.34 3.8,43.87 21.78,1.43 80.89,10.68 101.38,13.87 1.66,-7.99 10.16,-46.42 6.09,-46 -40.26,4.11 -55.92,-9.61 -101.52,-0.78 -6.39,1.23 -8.68,-14.82 54.78,-10.04 60.36,4.54 49.83,7.6 56.92,-38.92 3.41,-22.43 57.58,37.01 122.18,61.79 373.71,143.31 701.27,-222.89 568.67,-568.67 -26.29,-68.56 -94.79,-136.51 -68.62,-117.56 9.23,6.69 -3.06,-3.12 6.83,-4.62 46.52,-7.09 43.45,3.39 38.92,-56.92 -4.77,-63.36 11.27,-61.15 10.04,-54.78 -4.75,24.53 -3.39,33.46 -0.72,57.95 6.04,55.24 -16.48,50.73 47.5,37.48 -3.22,-20.7 -12.45,-79.68 -13.88,-101.38 -37.65,7.33 -53.11,-1.57 -43.86,-3.8 234.19,-56.68 312.58,-203.59 371.34,-417.42 -57.11,-207.81 -133.02,-359.74 -371.34,-417.42 z m 361.19,284.15 c 124.02,-78.07 145.15,-30.05 85.56,-123.75 -0.93,0.67 -113.17,76.45 -114.1,76.96 29.06,57.3 18.72,52.97 28.54,46.79 z m 150.87,14.29 c -166.94,63.05 -144.07,-0.64 -126.41,85.19 46.53,-10.62 127.76,-25.19 142.72,-25.04 -4.43,-20.32 -9.84,-40.4 -16.31,-60.15 z m 35.09,188.3 c -46.59,203 -209.86,403.96 -458.83,465.52 25.73,34.74 50.06,107.4 63.41,147.99 38.15,116.04 54.17,184.93 11.26,318.84 -64.6,201.63 -156.76,299.81 -367.25,367.25 -133.28,42.71 -201.99,27.16 -318.84,-11.26 -40.83,-13.42 -113.3,-37.72 -147.99,-63.41 -60.76,245.75 -253.68,410.21 -465.52,458.83 -197.43,45.3 -523.7,-133.41 -604.16,-458.83 -34.68,25.69 -107.17,49.99 -147.99,63.41 -117.17,38.52 -185.77,53.9 -318.84,11.26 -203.42,-65.18 -300.37,-158.51 -367.25,-367.25 -42.88,-133.81 -26.84,-202.94 11.26,-318.84 13.42,-40.83 37.71,-113.29 63.41,-147.99 -325.098,-80.39 -504.867,-403.45 -458.824,-604.16 46.586,-203 209.855,-403.96 458.824,-465.52 -25.73,-34.74 -50.06,-107.4 -63.41,-147.99 -38.15,-116.04 -54.17,-184.93 -11.26,-318.84 64.89,-202.53 157.64,-300.09 367.25,-367.25 133.28,-42.71 201.99,-27.16 318.84,11.26 40.83,13.42 113.3,37.72 147.99,63.41 60.76,-245.75 253.68,-410.219 465.52,-458.828 197.43,-45.301 523.7,133.41 604.16,458.828 34.68,-25.69 107.17,-49.99 147.99,-63.41 117.17,-38.52 185.77,-53.9 318.84,-11.26 203.42,65.18 300.37,158.51 367.25,367.25 42.88,133.81 26.84,202.94 -11.26,318.84 -13.43,40.83 -37.71,113.29 -63.41,147.99 325.1,80.39 504.87,403.45 458.83,604.16"/></g></g></svg>